<svg fill="#C20114" xmlns="http://www.w3.org/2000/svg" xmlns:xlink="http://www.w3.org/1999/xlink" version="1.1" x="0px" y="0px" viewBox="0 0 63.173 89.877" enable-background="new 0 0 63.173 89.877" xml:space="preserve"><path d="M43.478,19.203c2.807,0,5.086-1.062,5.086-2.37v-4.356l-0.007-0.002c0.001-0.016,0.007-0.031,0.007-0.047  c0-1.308-2.279-2.37-5.086-2.37c-2.813,0-5.09,1.062-5.09,2.37c0,0.012,0.002,0.022,0.002,0.035l-0.002-0.001v4.372  C38.388,18.141,40.665,19.203,43.478,19.203z M43.478,11.114c1.767,0,3.203,0.588,3.203,1.314c0,0.725-1.437,1.314-3.203,1.314  c-1.773,0-3.205-0.589-3.205-1.314C40.273,11.702,41.705,11.114,43.478,11.114z M63.173,45.572c0-1.292-0.669-2.824-1.479-4.19  V27.217c0.958-1.492,1.479-3.081,1.479-4.732c0-1.293-0.669-2.824-1.479-4.193v-2.156c0.188-0.641,0.294-1.292,0.294-1.956  C61.988,6.348,48.397,0,31.588,0S1.153,6.348,1.153,14.18c0,0.658,0.103,1.303,0.291,1.939v2.053C0.634,19.574,0,21.15,0,22.485  c0,1.629,0.507,3.202,1.443,4.677V41.26C0.634,42.663,0,44.239,0,45.572c0,1.63,0.507,3.201,1.443,4.679V64.89  C0.634,66.291,0,67.867,0,69.203c0,1.628,0.507,3.201,1.443,4.677v1.336c0.047,4.475,3.756,8.073,9.16,10.598  c5.447,2.533,12.833,4.059,20.985,4.063c8.151-0.005,15.529-1.53,20.968-4.063c5.392-2.524,9.091-6.127,9.138-10.598v-1.28  c0.958-1.493,1.479-3.083,1.479-4.732c0-1.294-0.669-2.825-1.479-4.192V50.307C62.652,48.812,63.173,47.223,63.173,45.572z   M31.588,2.22c15.024,0,27.202,5.356,27.202,11.96c0,6.604-12.178,11.958-27.202,11.958S4.385,20.785,4.385,14.18  C4.385,7.577,16.564,2.22,31.588,2.22z M51.578,83.718c-5.034,2.354-12.133,3.851-19.989,3.848  c-7.858,0.003-14.965-1.494-20.008-3.848c-4.194-1.946-6.815-4.431-7.584-6.913c5.4,4.781,15.729,8.018,27.593,8.018  c11.827,0,22.128-3.216,27.541-7.976C58.347,79.316,55.738,81.78,51.578,83.718z M59.381,73.018  c-3.506,5.524-14.62,9.562-27.793,9.562c-13.234,0-24.381-4.075-27.833-9.636v-19.98c5.331,4.897,15.794,8.229,27.833,8.229  c12.009,0,22.451-3.314,27.793-8.193V73.018z M59.381,49.388c-3.506,5.524-14.62,9.562-27.793,9.562  c-13.234,0-24.381-4.074-27.833-9.637V29.874c5.331,4.9,15.794,8.23,27.833,8.23c12.009,0,22.451-3.314,27.793-8.193V49.388z   M59.381,26.3c-3.506,5.524-14.62,9.564-27.793,9.564c-13.234,0-24.381-4.077-27.833-9.638v-6.31  c4.729,4.971,15.41,8.442,27.833,8.442c12.418,0,23.069-3.466,27.793-8.432V26.3z"></path></svg>