<svg fill="#FFFFFF" xmlns="http://www.w3.org/2000/svg" xmlns:xlink="http://www.w3.org/1999/xlink" version="1.1" x="0px" y="0px" viewBox="0 0 100 100" enable-background="new 0 0 100 100" xml:space="preserve"><path d="M50.736,37.36c-0.829,0-1.601,0.424-2.045,1.124l-18.204,28.67c-0.394,0.621-0.485,1.387-0.248,2.082  c0.238,0.695,0.779,1.245,1.47,1.494c0.254,0.092,6.365,2.243,19.026,2.243c12.289,0,18.355-2.007,19.007-2.235  c0.696-0.244,1.245-0.795,1.486-1.492c0.242-0.698,0.154-1.468-0.242-2.092L52.781,38.483C52.336,37.784,51.565,37.36,50.736,37.36z   M50.736,68.13c-6.81,0-11.567-0.657-14.363-1.21L50.736,44.3l14.37,22.629C62.329,67.48,57.601,68.13,50.736,68.13z"></path><path d="M31.781,24.026c-1.338,0-2.422,1.084-2.422,2.422v7.427c0,1.338,1.084,2.422,2.422,2.422  c1.337,0,2.422-1.084,2.422-2.422v-7.427C34.203,25.11,33.119,24.026,31.781,24.026z"></path><path d="M79.734,81.214V61.55c0.164-0.368,0.242-0.766,0.242-1.196c0-0.354-0.093-0.683-0.242-0.979V40.222  c0.159-0.365,0.242-0.755,0.242-1.181c0-0.354-0.093-0.684-0.242-0.979V18.894c1.459-0.809,2.098-1.808,2.098-3.103  c0-2.752-2.833-4.176-10.453-5.252c-5.507-0.778-12.803-1.206-20.546-1.206c-7.743,0-15.04,0.428-20.546,1.206  c-7.62,1.077-10.453,2.5-10.453,5.252c0,1.295,0.639,2.294,2.098,3.104v19.167c-0.15,0.295-0.242,0.625-0.242,0.979  c0,0.425,0.084,0.816,0.242,1.181v19.152c-0.15,0.297-0.242,0.626-0.242,0.979c0,0.431,0.08,0.828,0.242,1.195v19.665  c-1.183,0.16-2.099,1.163-2.099,2.39c0,1.758,1.164,4.049,10.239,6.181c6.081,1.429,13.454,2.215,20.761,2.215  c7.308,0,14.681-0.786,20.762-2.215c9.075-2.132,10.239-4.423,10.239-6.181C81.834,82.377,80.918,81.374,79.734,81.214z   M50.833,14.176c10.703,0,18.317,0.794,22.628,1.615c-4.311,0.821-11.925,1.615-22.628,1.615s-18.317-0.794-22.627-1.615  C32.515,14.97,40.13,14.176,50.833,14.176z M74.89,38.592c-2.368,0.808-8.172,1.818-17.216,2.172l2.581,4.238  c3.691-0.203,7.092-0.521,9.966-0.952c1.846-0.276,3.388-0.578,4.669-0.917v16.771c-1.015,0.345-2.652,0.728-4.903,1.08l2.441,4.009  c0.914-0.173,1.729-0.355,2.462-0.55v19.354c-4.144,1.486-12.972,3.357-24.058,3.357c-11.085,0-19.913-1.871-24.057-3.357V64.444  c0.707,0.188,1.485,0.363,2.359,0.529l2.496-3.997c-2.226-0.351-3.847-0.729-4.855-1.072V43.133  c1.282,0.339,2.824,0.641,4.669,0.917c2.921,0.437,6.388,0.759,10.151,0.961l2.646-4.239c-9.186-0.346-15.075-1.366-17.467-2.182  V20.45c1.039,0.211,2.199,0.408,3.511,0.593c5.506,0.778,12.803,1.206,20.546,1.206c7.743,0,15.039-0.428,20.546-1.206  c1.313-0.186,2.474-0.382,3.512-0.593V38.592z"></path></svg>