<svg fill="#FFFFFF" xmlns="http://www.w3.org/2000/svg" xmlns:xlink="http://www.w3.org/1999/xlink" version="1.1" x="0px" y="0px" viewBox="0 0 100 100" enable-background="new 0 0 100 100" xml:space="preserve"><g><path fill="#FFFFFF" d="M76.6,24.9c0-7.2-13.4-11.1-26.1-11.1c-12.6,0-26.1,3.9-26.1,11.1c0,1,0.3,2.1,0.9,3v19.7   c-0.6,1-0.9,2-0.9,3c0,1,0.3,2.1,0.9,3v19.7c-0.6,1-0.9,2-0.9,3c0,7.2,13.4,11.1,26.1,11.1c12.6,0,26.1-3.9,26.1-11.1   c0-1-0.3-2.1-0.9-3V53.6c0.6-1,0.9-2,0.9-3c0-1-0.3-2.1-0.9-3V27.9C76.3,26.9,76.6,25.9,76.6,24.9z M28.8,26.2   c-0.3-0.5-0.5-0.9-0.5-1.3c0-3,8.7-7.3,22.2-7.3s22.2,4.3,22.2,7.3c0,0.4-0.2,0.8-0.5,1.3l-0.4,0.5v22.1l0.4,0.5   c0.3,0.5,0.5,0.9,0.5,1.3s-0.2,0.8-0.5,1.3L72,52.2c-3.4,1.8-11,3.5-21.5,3.5C40,55.7,32.4,54,29,52.2l-0.2-0.3   c-0.3-0.5-0.5-0.9-0.5-1.3c0-0.4,0.2-0.8,0.5-1.3l0.4-0.5V26.7L28.8,26.2z M50.5,83.6c-13.6,0-22.2-4.3-22.2-7.3   c0-0.4,0.2-0.9,0.5-1.3l0.4-0.5V54.4c4.8,2.1,13.1,3.2,21.4,3.2c8.2,0,16.5-1.1,21.4-3.2v20.1l0.4,0.5c0.3,0.5,0.5,0.9,0.5,1.3   C72.7,79.3,64.1,83.6,50.5,83.6z"></path><ellipse fill="#FFFFFF" cx="39.7" cy="24.9" rx="3.3" ry="1.2"></ellipse><path fill="#FFFFFF" d="M50.5,30.8c9.9,0,19.9-2.1,19.9-6c0-4-10-6-19.9-6s-19.9,2.1-19.9,6C30.6,28.8,40.6,30.8,50.5,30.8z    M50.5,20.7c11.8,0,17.9,2.7,17.9,4.1c0,1.4-6.2,4.1-17.9,4.1c-11.8,0-17.9-2.7-17.9-4.1C32.6,23.3,38.7,20.7,50.5,20.7z"></path></g></svg>