<svg fill="#018E42" xmlns="http://www.w3.org/2000/svg" xmlns:xlink="http://www.w3.org/1999/xlink" version="1.1" x="0px" y="0px" viewBox="0 0 100 100" enable-background="new 0 0 100 100" xml:space="preserve"><g><path fill="#018E42" d="M35.371,55.383c-3.542,0-5.604-1.754-6.546-2.85c-4.604,0.56-8.088-0.413-10.379-2.875   c-2.165-2.323-2.604-5.336-2.679-6.88c-2.216-1.223-3.673-2.896-4.341-4.984c-1.051-3.28,0.234-6.547,0.8-7.735   c-0.332-2.872,0.223-5.282,1.645-7.167c1.571-2.079,3.787-2.923,4.981-3.245c2.827-5.877,7.214-7.583,10.63-7.914   c1.354-1.158,2.856-1.704,3.764-1.948c3.159-6.59,8.254-8.001,12.036-8.001c3.616,0,6.695,1.272,7.666,1.724   c8.83,0.304,12.617,4.607,14.178,7.58c1.473,0.388,2.598,0.858,3.118,1.094c12.435,0.424,14.92,8.762,15.343,10.809   c6.957,9.348,1.33,17.544-0.429,19.708c0.234,2.566-0.343,4.665-1.72,6.246c-2.227,2.563-5.889,2.946-7.877,2.946l0,0   c-0.297,0-0.554-0.009-0.754-0.02c-2.805,1.541-5.408,2.322-7.751,2.322c-3.542,0-5.598-1.755-6.54-2.854   c-3.535,0.435-6.414-0.043-8.607-1.412c-2.257,2.81-6.255,3.15-8.055,3.15c-0.286,0-0.537-0.008-0.731-0.018   C40.318,54.602,37.708,55.383,35.371,55.383z M30.259,49.355l0.502,0.897c0.04,0.076,1.331,2.207,4.61,2.207   c1.931,0,4.187-0.726,6.694-2.158l0.412-0.234l0.468,0.05c0.034,0.003,0.383,0.037,0.908,0.037c1.514,0,5.152-0.289,6.317-2.958   l0.834-1.917l1.514,1.441c1.759,1.675,4.621,2.215,8.414,1.607l1.017-0.163l0.497,0.897c0.046,0.076,1.337,2.208,4.609,2.208   c1.937,0,4.187-0.727,6.694-2.158l0.412-0.234l0.474,0.05c0.034,0.004,0.388,0.039,0.925,0.039l0,0c1.2,0,4.153-0.188,5.672-1.939   c0.914-1.049,1.234-2.595,0.949-4.592l-0.098-0.708l0.497-0.516c0.309-0.314,7.357-7.781,0.468-16.722l-0.25-0.327l-0.041-0.41   c-0.039-0.334-1.137-8.384-12.897-8.655l-0.622-0.157c-0.018-0.007-1.439-0.714-3.445-1.167l-0.708-0.16l-0.303-0.663   c-1.302-2.879-4.483-6.349-12.218-6.527L51.93,6.261c-0.027-0.016-3.084-1.552-6.648-1.552c-4.41,0-7.666,2.333-9.671,6.933   l-0.331,0.757l-0.817,0.109c-0.011,0.001-1.914,0.29-3.347,1.69l-0.389,0.383l-0.548,0.031c-4.055,0.239-7.065,2.558-8.962,6.893   l-0.326,0.755l-0.823,0.109c-0.011,0.003-2.439,0.373-3.884,2.309c-0.994,1.338-1.337,3.165-1.005,5.428l0.074,0.491l-0.246,0.437   c-0.017,0.031-1.697,3.092-0.794,5.883c0.497,1.525,1.713,2.748,3.627,3.634l0.908,0.421l-0.063,1.004   c-0.005,0.034-0.194,3.456,1.914,5.705c1.737,1.855,4.69,2.478,8.648,1.836L30.259,49.355z"></path></g><g><path fill="#018E42" d="M57.517,98.217H39.484v-1.463c0-27.688-9.693-43.309-9.791-43.463l2.468-1.569   c0.411,0.646,9.916,15.888,10.242,43.57h13.674c0.148-6.706,1.399-33.944,12.019-43.854l1.993,2.139   c-10.962,10.234-11.11,42.852-11.11,43.18v1.461H57.517z"></path></g><g><path fill="#018E42" d="M45.104,82.5l-1.314-8.655c-1.399-9.194-6.466-19.509-6.517-19.61l2.622-1.297   c0.171,0.338,3.267,6.643,5.341,13.955c1.457-5.771,4.004-13.975,7.534-18.49l2.303,1.802c-5.261,6.732-8.369,23.512-8.397,23.682   L45.104,82.5z"></path></g><g><path fill="#018E42" d="M53.621,77.567l-2.902-0.371c0.138-1.09,0.298-2.144,0.469-3.163l2.885,0.485   C53.906,75.501,53.752,76.518,53.621,77.567z"></path></g><g><path fill="#018E42" d="M54.992,69.926l-2.851-0.66c2.284-9.863,5.575-15.387,5.712-15.616l2.508,1.51   C60.327,55.212,57.162,60.556,54.992,69.926z"></path></g></svg>