<?xml version="1.0" encoding="UTF-8" standalone="no"?>
<!-- Created with Inkscape (http://www.inkscape.org/) -->
<svg
   xmlns:dc="http://purl.org/dc/elements/1.1/"
   xmlns:cc="http://web.resource.org/cc/"
   xmlns:rdf="http://www.w3.org/1999/02/22-rdf-syntax-ns#"
   xmlns:svg="http://www.w3.org/2000/svg"
   xmlns="http://www.w3.org/2000/svg"
   xmlns:sodipodi="http://sodipodi.sourceforge.net/DTD/sodipodi-0.dtd"
   xmlns:inkscape="http://www.inkscape.org/namespaces/inkscape"
   height="178.86"
   width="665.26001"
   id="svg2"
   sodipodi:version="0.32"
   inkscape:version="0.45.1"
   sodipodi:docbase="K:\Documents and Settings\Jeremiasz\Pulpit\Prace"
   sodipodi:docname="kapsaicyna.svg"
   inkscape:output_extension="org.inkscape.output.svg.inkscape"
   version="1.0">
  <defs
     id="defs4" />
  <sodipodi:namedview
     id="base"
     pagecolor="#ffffff"
     bordercolor="#666666"
     borderopacity="1.0"
     inkscape:pageopacity="0.0"
     inkscape:pageshadow="2"
     inkscape:cx="320.55564"
     inkscape:cy="83.224897"
     inkscape:zoom="1.4"
     inkscape:document-units="px"
     inkscape:current-layer="layer1"
     showguides="true"
     inkscape:guide-bbox="true"
     inkscape:window-width="1272"
     inkscape:window-height="962"
     inkscape:window-x="-4"
     inkscape:window-y="-4"
     width="665.26px"
     height="178.86px">
    <sodipodi:guide
       orientation="horizontal"
       position="486.64099"
       id="guide3182" />
    <sodipodi:guide
       orientation="vertical"
       position="71.720831"
       id="guide3190" />
    <sodipodi:guide
       orientation="vertical"
       position="275"
       id="guide4189" />
    <sodipodi:guide
       orientation="horizontal"
       position="501.69643"
       id="guide5160" />
    <sodipodi:guide
       orientation="horizontal"
       position="483.35799"
       id="guide5164" />
    <sodipodi:guide
       orientation="vertical"
       position="327.90179"
       id="guide6143" />
    <sodipodi:guide
       orientation="horizontal"
       position="481.60714"
       id="guide7114" />
    <sodipodi:guide
       orientation="horizontal"
       position="506.33929"
       id="guide7116" />
    <sodipodi:guide
       orientation="vertical"
       position="544.92995"
       id="guide8094" />
  </sodipodi:namedview>
  <metadata
     id="metadata7">
    <rdf:RDF>
      <cc:Work
         rdf:about="">
        <dc:format>image/svg+xml</dc:format>
        <dc:type
           rdf:resource="http://purl.org/dc/dcmitype/StillImage" />
      </cc:Work>
    </rdf:RDF>
  </metadata>
  <g
     inkscape:groupmode="layer"
     inkscape:label="Warstwa 1"
     id="layer1"
     transform="translate(-16.073321,-458.72379)">
    <path
       sodipodi:type="star"
       style="fill:none;fill-rule:evenodd;stroke:#000000;stroke-width:2.02021337;stroke-linecap:butt;stroke-linejoin:miter;stroke-miterlimit:4;stroke-dasharray:none;stroke-opacity:1"
       id="path2199"
       sodipodi:sides="6"
       sodipodi:cx="170"
       sodipodi:cy="457.36218"
       sodipodi:r1="49.979588"
       sodipodi:r2="43.283592"
       sodipodi:arg1="1.0471976"
       sodipodi:arg2="1.5707963"
       inkscape:flatsided="true"
       inkscape:rounded="0"
       inkscape:randomized="0"
       d="M 194.98979,500.64578 L 145.0102,500.64577 L 120.02041,457.36218 L 145.01021,414.07859 L 194.9898,414.07859 L 219.97959,457.36219 L 194.98979,500.64578 z "
       transform="matrix(0.8573603,0.4949972,-0.4949972,0.8573603,234.21318,47.517051)" />
    <path
       style="fill:none;fill-rule:evenodd;stroke:#000000;stroke-width:2;stroke-linecap:butt;stroke-linejoin:miter;stroke-miterlimit:4;stroke-dasharray:none;stroke-opacity:1"
       d="M 187.50826,503.95811 L 153.2732,484.19248 M 153.27389,563.25379 L 187.50289,543.46742 M 119.03276,503.93617 L 119.03883,543.48815"
       id="path3173"
       sodipodi:nodetypes="cccccc" />
    <path
       style="fill:none;fill-rule:evenodd;stroke:#000000;stroke-width:2;stroke-linecap:butt;stroke-linejoin:miter;stroke-miterlimit:4;stroke-dasharray:none;stroke-opacity:1"
       d="M 110.73426,499.09878 L 76.020825,479.05697"
       id="path2203" />
    <path
       style="font-size:28px;font-style:normal;font-variant:normal;font-weight:normal;font-stretch:normal;text-align:start;line-height:125%;writing-mode:lr-tb;text-anchor:start;fill:#000000;fill-opacity:1;stroke:none;stroke-width:1px;stroke-linecap:butt;stroke-linejoin:miter;stroke-opacity:1;font-family:Bitstream Vera Sans"
       d="M 35.069474,461.95007 L 37.831192,461.95007 L 37.831192,470.31725 L 47.866349,470.31725 L 47.866349,461.95007 L 50.628067,461.95007 L 50.628067,482.36218 L 47.866349,482.36218 L 47.866349,472.64147 L 37.831192,472.64147 L 37.831192,482.36218 L 35.069474,482.36218 L 35.069474,461.95007 z M 64.409317,463.82311 C 62.4041,463.82313 60.811328,464.57053 59.630997,466.0653 C 58.450653,467.56011 57.860485,469.59721 57.860489,472.17663 C 57.860485,474.74695 58.450653,476.7795 59.630997,478.27428 C 60.811328,479.76908 62.4041,480.51647 64.409317,480.51647 C 66.414513,480.51647 68.002727,479.76908 69.173966,478.27428 C 70.345173,476.7795 70.930784,474.74695 70.930802,472.17663 C 70.930784,469.59721 70.345173,467.56011 69.173966,466.0653 C 68.002727,464.57053 66.414513,463.82313 64.409317,463.82311 L 64.409317,463.82311 z M 64.409317,461.58093 C 67.271283,461.58095 69.559041,462.54026 71.272599,464.45886 C 72.986121,466.37749 73.842891,468.95008 73.842911,472.17663 C 73.842891,475.39408 72.986121,477.96211 71.272599,479.88073 C 69.559041,481.79935 67.271283,482.75866 64.409317,482.75866 C 61.538216,482.75866 59.243621,481.80163 57.525528,479.88757 C 55.807427,477.97351 54.948378,475.4032 54.94838,472.17663 C 54.948378,468.95008 55.807427,466.37749 57.525528,464.45886 C 59.243621,462.54026 61.538216,461.58095 64.409317,461.58093 L 64.409317,461.58093 z "
       id="text2205" />
    <path
       style="fill:none;fill-rule:evenodd;stroke:#000000;stroke-width:2;stroke-linecap:butt;stroke-linejoin:miter;stroke-miterlimit:4;stroke-dasharray:none;stroke-opacity:1"
       d="M 110.75893,548.51173 L 76.050324,568.55075"
       id="path3180" />
    <path
       style="fill:none;fill-rule:evenodd;stroke:#000000;stroke-width:2;stroke-linecap:butt;stroke-linejoin:miter;stroke-miterlimit:4;stroke-dasharray:none;stroke-opacity:1"
       d="M 53.913175,568.57833 L 19.216178,548.54601"
       id="path3184" />
    <path
       style="font-size:28px;font-style:normal;font-variant:normal;font-weight:normal;font-stretch:normal;text-align:start;line-height:125%;writing-mode:lr-tb;text-anchor:start;fill:#000000;fill-opacity:1;stroke:none;stroke-width:1px;stroke-linecap:butt;stroke-linejoin:miter;stroke-opacity:1;font-family:Bitstream Vera Sans"
       d="M 64.430096,566.95937 C 62.424879,566.95939 60.832107,567.70679 59.651776,569.20156 C 58.471432,570.69637 57.881263,572.73348 57.881268,575.31289 C 57.881263,577.88321 58.471432,579.91576 59.651776,581.41055 C 60.832107,582.90534 62.424879,583.65274 64.430096,583.65273 C 66.435291,583.65274 68.023506,582.90534 69.194745,581.41055 C 70.365952,579.91576 70.951563,577.88321 70.95158,575.31289 C 70.951563,572.73348 70.365952,570.69637 69.194745,569.20156 C 68.023506,567.70679 66.435291,566.95939 64.430096,566.95937 L 64.430096,566.95937 z M 64.430096,564.71719 C 67.292061,564.71721 69.579819,565.67652 71.293377,567.59512 C 73.006899,569.51375 73.863669,572.08634 73.86369,575.31289 C 73.863669,578.53034 73.006899,581.09838 71.293377,583.01699 C 69.579819,584.93561 67.292061,585.89492 64.430096,585.89492 C 61.558994,585.89492 59.2644,584.93789 57.546307,583.02383 C 55.828206,581.10977 54.969157,578.53946 54.969159,575.31289 C 54.969157,572.08634 55.828206,569.51375 57.546307,567.59512 C 59.2644,565.67652 61.558994,564.71721 64.430096,564.71719 L 64.430096,564.71719 z "
       id="text3186" />
    <path
       style="fill:none;fill-rule:evenodd;stroke:#000000;stroke-width:2;stroke-linecap:butt;stroke-linejoin:miter;stroke-miterlimit:4;stroke-dasharray:none;stroke-opacity:1"
       d="M 196.25,548.43361 L 239.56336,573.44058 L 274.23252,553.42434"
       id="path4179" />
    <path
       style="font-size:28px;font-style:normal;font-variant:normal;font-weight:normal;font-stretch:normal;text-align:start;line-height:125%;writing-mode:lr-tb;text-anchor:start;fill:#000000;fill-opacity:1;stroke:none;stroke-width:1px;stroke-linecap:butt;stroke-linejoin:miter;stroke-opacity:1;font-family:Bitstream Vera Sans"
       d="M 277.14286,537.48574 L 280.86161,537.48574 L 289.91239,554.56191 L 289.91239,537.48574 L 292.59208,537.48574 L 292.59208,557.89785 L 288.87333,557.89785 L 279.82255,540.82168 L 279.82255,557.89785 L 277.14286,557.89785 L 277.14286,537.48574 z "
       id="text4181" />
    <path
       style="font-size:28px;font-style:normal;font-variant:normal;font-weight:normal;font-stretch:normal;text-align:start;line-height:125%;writing-mode:lr-tb;text-anchor:start;fill:#000000;fill-opacity:1;stroke:none;stroke-width:1px;stroke-linecap:butt;stroke-linejoin:miter;stroke-opacity:1;font-family:Bitstream Vera Sans"
       d="M 277.14286,514.62862 L 279.90458,514.62862 L 279.90458,522.99581 L 289.93974,522.99581 L 289.93974,514.62862 L 292.70145,514.62862 L 292.70145,535.04073 L 289.93974,535.04073 L 289.93974,525.32003 L 279.90458,525.32003 L 279.90458,535.04073 L 277.14286,535.04073 L 277.14286,514.62862 z "
       id="text4185" />
    <path
       style="fill:none;fill-rule:evenodd;stroke:#000000;stroke-width:2;stroke-linecap:butt;stroke-linejoin:miter;stroke-miterlimit:4;stroke-dasharray:none;stroke-opacity:1"
       d="M 295.33964,553.52289 L 330.04885,573.56226 L 373.35423,548.55989 L 416.68054,573.57435 L 460.14131,548.88003 L 503.61654,573.61218 L 547.0866,548.88003 L 590.53742,573.61218 L 634.00137,548.88003 L 677.47897,573.61218"
       id="path5162" />
    <path
       style="fill:none;fill-rule:evenodd;stroke:#000000;stroke-width:2;stroke-linecap:butt;stroke-linejoin:miter;stroke-miterlimit:4;stroke-dasharray:none;stroke-opacity:1"
       d="M 327.15944,571.86133 L 327.15944,611.91575"
       id="path5166" />
    <path
       style="fill:none;fill-rule:evenodd;stroke:#000000;stroke-width:2;stroke-linecap:butt;stroke-linejoin:miter;stroke-miterlimit:4;stroke-dasharray:none;stroke-opacity:1"
       d="M 332.95759,571.86133 L 332.95759,611.87111"
       id="path5168" />
    <path
       style="font-size:28px;font-style:normal;font-variant:normal;font-weight:normal;font-stretch:normal;text-align:start;line-height:125%;writing-mode:lr-tb;text-anchor:start;fill:#000000;fill-opacity:1;stroke:none;stroke-width:1px;stroke-linecap:butt;stroke-linejoin:miter;stroke-opacity:1;font-family:Bitstream Vera Sans"
       d="M 330.05106,616.50173 C 328.04585,616.50175 326.45307,617.24915 325.27274,618.74392 C 324.0924,620.23873 323.50223,622.27583 323.50224,624.85525 C 323.50223,627.42557 324.0924,629.45812 325.27274,630.9529 C 326.45307,632.4477 328.04585,633.19509 330.05106,633.19509 C 332.05626,633.19509 333.64447,632.4477 334.81571,630.9529 C 335.98692,629.45812 336.57253,627.42557 336.57255,624.85525 C 336.57253,622.27583 335.98692,620.23873 334.81571,618.74392 C 333.64447,617.24915 332.05626,616.50175 330.05106,616.50173 L 330.05106,616.50173 z M 330.05106,614.25954 C 332.91303,614.25957 335.20079,615.21887 336.91434,617.13747 C 338.62787,619.05611 339.48464,621.6287 339.48466,624.85525 C 339.48464,628.0727 338.62787,630.64073 336.91434,632.55935 C 335.20079,634.47797 332.91303,635.43728 330.05106,635.43728 C 327.17996,635.43728 324.88537,634.48025 323.16727,632.56619 C 321.44917,630.65213 320.59012,628.08182 320.59013,624.85525 C 320.59012,621.6287 321.44917,619.05611 323.16727,617.13747 C 324.88537,615.21887 327.17996,614.25957 330.05106,614.25954 L 330.05106,614.25954 z "
       id="text6139" />
    <path
       style="fill:none;fill-rule:evenodd;stroke:#000000;stroke-width:2;stroke-linecap:butt;stroke-linejoin:miter;stroke-miterlimit:4;stroke-dasharray:none;stroke-opacity:1"
       d="M 633.99554,548.88003 L 633.99554,498.88004"
       id="path7123" />
    <path
       style="fill:none;fill-rule:evenodd;stroke:#000000;stroke-width:1.9076972;stroke-linecap:butt;stroke-linejoin:miter;stroke-miterlimit:4;stroke-dasharray:none;stroke-opacity:1"
       d="M 547.02666,555.05325 L 584.4037,576.6329"
       id="path8096" />
  </g>
</svg>
