<?xml version="1.0" encoding="UTF-8" standalone="no"?>
<svg
   xmlns:dc="http://purl.org/dc/elements/1.1/"
   xmlns:cc="http://creativecommons.org/ns#"
   xmlns:rdf="http://www.w3.org/1999/02/22-rdf-syntax-ns#"
   xmlns:svg="http://www.w3.org/2000/svg"
   xmlns="http://www.w3.org/2000/svg"
   xmlns:sodipodi="http://sodipodi.sourceforge.net/DTD/sodipodi-0.dtd"
   xmlns:inkscape="http://www.inkscape.org/namespaces/inkscape"
   id="0"
   version="1.0"
   viewBox="0 0 148.68 112.57"
   inkscape:version="0.47 r22583"
   width="100%"
   height="100%"
   sodipodi:docname="CS_gas.svg">
  <metadata
     id="metadata54">
    <rdf:RDF>
      <cc:Work
         rdf:about="">
        <dc:format>image/svg+xml</dc:format>
        <dc:type
           rdf:resource="http://purl.org/dc/dcmitype/StillImage" />
      </cc:Work>
    </rdf:RDF>
  </metadata>
  <defs
     id="defs52">
    <inkscape:perspective
       sodipodi:type="inkscape:persp3d"
       inkscape:vp_x="0 : 339.69299 : 1"
       inkscape:vp_y="0 : 1000 : 0"
       inkscape:vp_z="918.51947 : 339.69299 : 1"
       inkscape:persp3d-origin="459.25973 : 226.462 : 1"
       id="perspective56" />
  </defs>
  <sodipodi:namedview
     pagecolor="#ffffff"
     bordercolor="#666666"
     borderopacity="1"
     objecttolerance="10"
     gridtolerance="10"
     guidetolerance="10"
     inkscape:pageopacity="0"
     inkscape:pageshadow="2"
     inkscape:window-width="1280"
     inkscape:window-height="976"
     id="namedview50"
     showgrid="false"
     inkscape:zoom="0.99"
     inkscape:cx="200.37101"
     inkscape:cy="130.23518"
     inkscape:window-x="0"
     inkscape:window-y="24"
     inkscape:window-maximized="1"
     inkscape:current-layer="0" />
  <g
     id="1"
     transform="matrix(0.51279685,0,0,0.51279685,-156.27316,-77.445603)"
     style="fill:#000000">
    <path
       d="m 315.55,296.2 0,-47.55"
       id="2"
       stroke-miterlimit="4"
       style="fill:#000000;stroke:#000000;stroke-width:0.80000000999999998px;stroke-linecap:butt;stroke-linejoin:miter;stroke-miterlimit:4;stroke-dasharray:none" />
    <path
       d="m 316.6,296.8 -2.1,1.2 0,-51.15 2.1,1.2 0,48.75 z"
       id="3"
       style="fill:#000000;fill-rule:evenodd" />
    <path
       d="m 324.55,291 0,-37.15"
       id="4"
       stroke-miterlimit="4"
       style="fill:#000000;stroke:#000000;stroke-width:0.80000000999999998px;stroke-linecap:butt;stroke-linejoin:miter;stroke-miterlimit:4;stroke-dasharray:none" />
    <path
       d="m 323.5,252.65 0,39.55 2.1,0 0,-39.55 -2.1,0 z"
       id="5"
       style="fill:#000000;fill-rule:evenodd" />
    <path
       d="M 357.6,321.15 316.75,298.6"
       id="6"
       stroke-miterlimit="4"
       style="fill:#000000;stroke:#000000;stroke-width:0.80000000999999998px;stroke-linecap:butt;stroke-linejoin:miter;stroke-miterlimit:4;stroke-dasharray:none" />
    <path
       d="m 358.8,321.15 0,2.45 -44.3,-25.6 2.1,-1.2 42.2,24.35 z"
       id="7"
       style="fill:#000000;fill-rule:evenodd" />
    <path
       d="M 400.9,298.6 360,321.15"
       id="8"
       stroke-miterlimit="4"
       style="fill:#000000;stroke:#000000;stroke-width:0.80000000999999998px;stroke-linecap:butt;stroke-linejoin:miter;stroke-miterlimit:4;stroke-dasharray:none" />
    <path
       d="m 401.05,296.8 2.05,1.2 -44.3,25.6 0,-2.45 42.25,-24.35 z"
       id="9"
       style="fill:#000000;fill-rule:evenodd" />
    <path
       d="M 391.9,293.4 360,310.8"
       id="10"
       stroke-miterlimit="4"
       style="fill:#000000;stroke:#000000;stroke-width:0.80000000999999998px;stroke-linecap:butt;stroke-linejoin:miter;stroke-miterlimit:4;stroke-dasharray:none" />
    <path
       d="m 392.55,291.3 1.05,1.8 -34.25,19.8 -1.05,-1.8 34.25,-19.8 z"
       id="11"
       style="fill:#000000;fill-rule:evenodd" />
    <path
       d="m 402.1,248.65 0,47.55"
       id="12"
       stroke-miterlimit="4"
       style="fill:#000000;stroke:#000000;stroke-width:0.80000000999999998px;stroke-linecap:butt;stroke-linejoin:miter;stroke-miterlimit:4;stroke-dasharray:none" />
    <path
       d="m 401.05,248.05 1.05,-0.6 1,0.6 0,49.95 -2.05,-1.2 0,-48.75 z"
       id="13"
       style="fill:#000000;fill-rule:evenodd" />
    <path
       d="m 360,223.65 40.9,22.6"
       id="14"
       stroke-miterlimit="4"
       style="fill:#000000;stroke:#000000;stroke-width:0.80000000999999998px;stroke-linecap:butt;stroke-linejoin:miter;stroke-miterlimit:4;stroke-dasharray:none" />
    <path
       d="m 358.8,223.65 0,-1.2 1.05,-0.6 42.25,24.4 0,1.2 -1.05,0.6 -42.25,-24.4 z"
       id="15"
       style="fill:#000000;fill-rule:evenodd" />
    <path
       d="m 360,234.05 31.9,17.4"
       id="16"
       stroke-miterlimit="4"
       style="fill:#000000;stroke:#000000;stroke-width:0.80000000999999998px;stroke-linecap:butt;stroke-linejoin:miter;stroke-miterlimit:4;stroke-dasharray:none" />
    <path
       d="m 358.3,233.75 1.05,-1.8 34.25,19.8 -1.05,1.8 -34.25,-19.8 z"
       id="17"
       style="fill:#000000;fill-rule:evenodd" />
    <path
       d="m 316.75,246.25 40.85,-22.6"
       id="18"
       stroke-miterlimit="4"
       style="fill:#000000;stroke:#000000;stroke-width:0.80000000999999998px;stroke-linecap:butt;stroke-linejoin:miter;stroke-miterlimit:4;stroke-dasharray:none" />
    <path
       d="m 316.6,248.05 -2.1,-1.2 43.3,-25 1,0.6 0,1.2 -42.2,24.4 z"
       id="19"
       style="fill:#000000;fill-rule:evenodd" />
    <g
       style="font-size:35.20000076000000178px;font-style:normal;font-weight:normal;text-align:start;text-anchor:start;fill:#000000;font-family:Arial"
       id="20">
      <path
         d="m 367.09374,177.56562 3.33438,0.84219 c -0.69898,2.73854 -1.9594,4.82969 -3.78125,6.27343 -1.81044,1.4323 -4.02762,2.14844 -6.65156,2.14844 -2.71564,0 -4.9271,-0.55 -6.63438,-1.65 -1.69584,-1.11145 -2.99063,-2.71562 -3.88437,-4.8125 -0.8823,-2.09687 -1.32344,-4.34843 -1.32344,-6.75469 0,-2.62394 0.49843,-4.90987 1.49531,-6.85781 1.00833,-1.95935 2.43489,-3.44321 4.27969,-4.45156 1.85624,-1.01977 3.89582,-1.52966 6.11875,-1.52969 2.52082,3e-5 4.64061,0.64169 6.35937,1.925 1.71873,1.28336 2.91613,3.08804 3.59219,5.41406 l -3.28281,0.77344 c -0.5844,-1.83331 -1.43231,-3.16821 -2.54375,-4.00469 -1.11148,-0.83643 -2.50939,-1.25466 -4.19375,-1.25468 -1.93647,2e-5 -3.55782,0.46408 -4.86406,1.39218 -1.2948,0.92815 -2.20574,2.17711 -2.73282,3.74688 -0.52708,1.55835 -0.79063,3.16824 -0.79062,4.82969 -10e-6,2.14272 0.30937,4.01615 0.92812,5.62031 0.63021,1.59271 1.60416,2.78438 2.92188,3.575 1.3177,0.79063 2.74426,1.18594 4.27969,1.18594 1.86769,0 3.44894,-0.53854 4.74375,-1.61563 1.29477,-1.07708 2.17133,-2.67551 2.62968,-4.79531"
         style="font-size:35.20000076000000178px;font-style:normal;font-weight:normal;text-align:start;text-anchor:start;fill:#000000;font-family:Arial"
         id="path2863" />
    </g>
    <g
       style="font-size:35.20000076000000178px;font-style:normal;font-weight:normal;text-align:start;text-anchor:start;fill:#000000;font-family:Arial"
       id="21">
      <path
         d="m 373.45157,186.39999 0,-25.19687 3.09375,0 0,25.19687 -3.09375,0"
         style="font-size:35.20000076000000178px;font-style:normal;font-weight:normal;text-align:start;text-anchor:start;fill:#000000;font-family:Arial"
         id="path2866" />
    </g>
    <path
       d="m 358.8,192.45 0,28.8"
       id="22"
       stroke-miterlimit="4"
       style="fill:#000000;stroke:#000000;stroke-width:0.80000000999999998px;stroke-linecap:butt;stroke-linejoin:miter;stroke-miterlimit:4;stroke-dasharray:none" />
    <path
       d="m 357.8,191.25 2.05,0 0,30.6 -1.05,0.6 -1,-0.6 0,-30.6 z"
       id="23"
       style="fill:#000000;fill-rule:evenodd" />
    <path
       d="m 444.1,223.7 -40.8,22.55"
       id="24"
       stroke-miterlimit="4"
       style="fill:#000000;stroke:#000000;stroke-width:0.80000000999999998px;stroke-linecap:butt;stroke-linejoin:miter;stroke-miterlimit:4;stroke-dasharray:none" />
    <path
       d="m 445.3,221.3 0,2.4 -42.2,24.35 -1,-0.6 0,-1.2 43.2,-24.95 z"
       id="25"
       style="fill:#000000;fill-rule:evenodd" />
    <path
       d="M 487.35,246.25 446.5,223.7"
       id="26"
       stroke-miterlimit="4"
       style="fill:#000000;stroke:#000000;stroke-width:0.80000000999999998px;stroke-linecap:butt;stroke-linejoin:miter;stroke-miterlimit:4;stroke-dasharray:none" />
    <path
       d="m 488.55,246.25 0,1.2 -1.05,0.6 -42.2,-24.35 0,-2.4 43.25,24.95 z"
       id="27"
       style="fill:#000000;fill-rule:evenodd" />
    <path
       d="M 478.35,251.45 446.5,234.05"
       id="28"
       stroke-miterlimit="4"
       style="fill:#000000;stroke:#000000;stroke-width:0.80000000999999998px;stroke-linecap:butt;stroke-linejoin:miter;stroke-miterlimit:4;stroke-dasharray:none" />
    <path
       d="m 480.1,251.75 -1.05,1.8 -34.25,-19.8 1.05,-1.8 34.25,19.8 z"
       id="29"
       style="fill:#000000;fill-rule:evenodd" />
    <path
       d="m 530.6,223.7 -40.85,22.55"
       id="30"
       stroke-miterlimit="4"
       style="fill:#000000;stroke:#000000;stroke-width:0.80000000999999998px;stroke-linecap:butt;stroke-linejoin:miter;stroke-miterlimit:4;stroke-dasharray:none" />
    <path
       d="m 531.25,221.6 1.05,1.8 -42.7,24.65 -1.05,-0.6 0,-1.2 42.7,-24.65 z"
       id="31"
       style="fill:#000000;fill-rule:evenodd" />
    <path
       d="m 488.55,296.15 0,-47.5"
       id="32"
       stroke-miterlimit="4"
       style="fill:#000000;stroke:#000000;stroke-width:0.80000000999999998px;stroke-linecap:butt;stroke-linejoin:miter;stroke-miterlimit:4;stroke-dasharray:none" />
    <path
       d="m 489.6,297.35 -2.1,0 0,-49.3 1.05,-0.6 1.05,0.6 0,49.3 z"
       id="33"
       style="fill:#000000;fill-rule:evenodd" />
    <g
       style="font-size:35.20000076000000178px;font-style:normal;font-weight:normal;text-align:start;text-anchor:start;fill:#000000;font-family:Arial"
       id="34">
      <path
         d="m 478.68125,360.79999 0,-25.19688 3.42031,0 13.23438,19.78282 0,-19.78282 3.19687,0 0,25.19688 -3.42031,0 -13.23437,-19.8 0,19.8 -3.19688,0"
         style="font-size:35.20000076000000178px;font-style:normal;font-weight:normal;text-align:start;text-anchor:start;fill:#000000;font-family:Arial"
         id="path2869" />
    </g>
    <path
       d="m 497.55,329.35 0,-30.8"
       id="35"
       stroke-miterlimit="4"
       style="fill:#000000;stroke:#000000;stroke-width:0.80000000999999998px;stroke-linecap:butt;stroke-linejoin:miter;stroke-miterlimit:4;stroke-dasharray:none" />
    <path
       d="m 496.5,297.35 0,33.2 2.1,0 0,-33.2 -2.1,0 z"
       id="36"
       style="fill:#000000;fill-rule:evenodd" />
    <path
       d="m 488.55,329.35 0,-30.8"
       id="37"
       stroke-miterlimit="4"
       style="fill:#000000;stroke:#000000;stroke-width:0.80000000999999998px;stroke-linecap:butt;stroke-linejoin:miter;stroke-miterlimit:4;stroke-dasharray:none" />
    <path
       d="m 487.5,297.35 0,33.2 2.1,0 0,-33.2 -2.1,0 z"
       id="38"
       style="fill:#000000;fill-rule:evenodd" />
    <path
       d="m 479.55,329.35 0,-30.8"
       id="39"
       stroke-miterlimit="4"
       style="fill:#000000;stroke:#000000;stroke-width:0.80000000999999998px;stroke-linecap:butt;stroke-linejoin:miter;stroke-miterlimit:4;stroke-dasharray:none" />
    <path
       d="m 478.5,297.35 0,33.2 2.1,0 0,-33.2 -2.1,0 z"
       id="40"
       style="fill:#000000;fill-rule:evenodd" />
    <g
       style="font-size:35.20000076000000178px;font-style:normal;font-weight:normal;text-align:start;text-anchor:start;fill:#000000;font-family:Arial"
       id="41">
      <path
         d="m 565.08127,211.2 0,-25.19688 3.42032,0 13.23437,19.78281 0,-19.78281 3.19688,0 0,25.19688 -3.42032,0 -13.23437,-19.8 0,19.8 -3.19688,0"
         style="font-size:35.20000076000000178px;font-style:normal;font-weight:normal;text-align:start;text-anchor:start;fill:#000000;font-family:Arial"
         id="path2872" />
    </g>
    <path
       d="M 550.65,201.7 528.5,213.5"
       id="42"
       stroke-miterlimit="4"
       style="fill:#000000;stroke:#000000;stroke-width:0.80000000999999998px;stroke-linecap:butt;stroke-linejoin:miter;stroke-miterlimit:4;stroke-dasharray:none" />
    <path
       d="m 551.35,199.6 1,1.8 -24.55,14.2 -1.05,-1.8 24.6,-14.2 z"
       id="43"
       style="fill:#000000;fill-rule:evenodd" />
    <path
       d="M 555.15,209.5 533,221.3"
       id="44"
       stroke-miterlimit="4"
       style="fill:#000000;stroke:#000000;stroke-width:0.80000000999999998px;stroke-linecap:butt;stroke-linejoin:miter;stroke-miterlimit:4;stroke-dasharray:none" />
    <path
       d="m 555.8,207.4 1.05,1.8 -24.55,14.2 -1.05,-1.8 24.55,-14.2 z"
       id="45"
       style="fill:#000000;fill-rule:evenodd" />
    <path
       d="m 559.65,217.25 -22.2,11.8"
       id="46"
       stroke-miterlimit="4"
       style="fill:#000000;stroke:#000000;stroke-width:0.80000000999999998px;stroke-linecap:butt;stroke-linejoin:miter;stroke-miterlimit:4;stroke-dasharray:none" />
    <path
       d="m 560.3,215.15 1.05,1.8 -24.55,14.2 -1.05,-1.8 24.55,-14.2 z"
       id="47"
       style="fill:#000000;fill-rule:evenodd" />
  </g>
</svg>
