<svg fill="#000000" xmlns="http://www.w3.org/2000/svg" xmlns:xlink="http://www.w3.org/1999/xlink" version="1.1" x="0px" y="0px" viewBox="0 0 100 100" enable-background="new 0 0 100 100" xml:space="preserve"><g><g><g><path fill="#000000" d="M12.268,76.873c2.77,5.473,1.706,11.687-1.484,16.729c0.543,0.317,1.086,0.636,1.63,0.953     c0.305-0.485,0.921-1.529,1.087-1.736c-0.494-0.381-0.988-0.762-1.482-1.144c-0.402,0.648-0.822,1.286-1.235,1.927     c-0.67,1.04,0.93,1.918,1.63,0.953c3.367-4.643,8.266-8.777,14.369-7.913c4.933,0.699,10.247-0.733,14.169-3.801     c8.179-6.395,10.055-17.965,4.198-26.58c-5.74-8.444-17.355-10.54-26.005-5.499c-9.039,5.267-11.613,17.054-6.909,26.049     c0.564,1.078,2.193,0.124,1.63-0.953c-4.858-9.288-0.895-20.724,8.833-24.771c9.625-4.005,20.454,1.816,23.401,11.498     c3.079,10.113-4.081,20.191-14.048,22.106c-2.499,0.479-4.909-0.075-7.403-0.08c-1.879-0.004-3.695,0.604-5.392,1.352     c-3.509,1.547-6.269,4.598-8.474,7.639c0.543,0.317,1.086,0.636,1.63,0.953c0.413-0.642,0.833-1.278,1.235-1.927     c0.556-0.896-0.801-1.987-1.482-1.144c-0.525,0.65-0.939,1.41-1.383,2.117c-0.649,1.035,0.981,1.978,1.63,0.953     c3.566-5.637,4.557-12.562,1.484-18.635C13.348,74.834,11.72,75.79,12.268,76.873L12.268,76.873z"></path></g></g><g><g><path fill="#000000" d="M40.944,52.998c6.548-4.58,15.061-6.145,22.282-2.157c1.089,0.601,1.915-0.925,0.953-1.63     c-0.057-0.042-0.113-0.083-0.17-0.125c-0.317,0.543-0.636,1.086-0.953,1.63c5.903,3.458,13.095,5.659,19.161,1.355     c5.493-3.897,6.578-12.177,7.195-18.298c0.073-0.722-0.852-1.163-1.42-0.815c-0.273,0.155-0.539,0.323-0.795,0.505     c-0.597,0.41-0.657,1.583,0.226,1.725c0.628,0.101,1.297-0.285,1.713-0.748c0.718-0.797-0.183-1.999-1.144-1.482     c-3.988,2.145-8.02,1.066-12.27,1.002c-3.457-0.052-6.473,2.295-8.575,4.807c-0.771,0.921,0.521,2.254,1.334,1.335     c0.053-0.06,0.105-0.119,0.157-0.178c0.801-0.905-0.499-2.231-1.334-1.335c-2.214,2.376-4.891,4.039-8.165,4.413     c-2.894,0.331-5.795-0.182-8.714,0.286c-5.208,0.833-10.294,2.831-14.196,6.464c-0.892,0.831,0.445,2.164,1.335,1.335     c4.601-4.286,11.043-6.145,17.22-6.264c2.664-0.051,5.026,0.207,7.605-0.623c2.443-0.787,4.523-2.423,6.249-4.275     c-0.444-0.445-0.89-0.89-1.334-1.335c-0.053,0.06-0.105,0.119-0.157,0.178c0.444,0.445,0.89,0.89,1.334,1.335     c1.114-1.331,2.301-2.418,3.808-3.302c2.205-1.293,4.419-0.839,6.806-0.635c3.385,0.289,6.815,0.053,9.851-1.578     c-0.382-0.494-0.763-0.988-1.144-1.482c-0.33,0.366-0.709,0.129,0.122,0.262c0.075,0.575,0.15,1.15,0.226,1.725     c0.257-0.182,0.521-0.35,0.796-0.505c-0.474-0.271-0.947-0.543-1.42-0.815c-0.551,5.457-1.453,11.591-5.313,15.812     c-4.948,5.41-12.894,2.612-18.203-0.499c-1.074-0.629-1.912,0.927-0.953,1.63c0.057,0.042,0.113,0.083,0.17,0.125     c0.317-0.543,0.636-1.086,0.953-1.63c-7.785-4.298-17.083-2.812-24.188,2.158C39.003,52.061,39.944,53.698,40.944,52.998     L40.944,52.998z"></path></g></g><g><g><path fill="#000000" d="M38.045,50.706c6.463-5.736,1.253-14.255-2.866-19.67c-3.214-4.225-7.663-10.429-3.251-15.502     c2.416-2.778,5.402-4.628,6.332-8.484c-0.526,0.139-1.052,0.277-1.578,0.417c3.647,4.136,8.479,10.337,5.917,16.051     c-0.694,1.549-2.068,2.668-2.576,4.329c-0.477,1.561-0.51,2.941-0.172,4.532c0.421,1.98,1.556,3.956,2.114,5.934     c0.713,2.525,0.907,5.109,0.603,7.708c-0.141,1.208,1.748,1.194,1.888,0c0.507-4.341-0.557-8.454-2.105-12.486     c-1.163-3.03-0.906-5.167,1.087-7.749c0.98-1.27,1.661-3.058,1.795-4.652c0.471-5.608-3.692-11.004-7.217-15.002     c-0.467-0.53-1.417-0.249-1.578,0.417c-0.946,3.929-4.339,5.392-6.462,8.382c-2.844,4.005-1.684,8.856,0.468,12.9     c3.185,5.986,13.941,14.73,6.266,21.541C35.798,50.181,37.138,51.511,38.045,50.706L38.045,50.706z"></path></g></g><g><g><path fill="#000000" d="M44.575,43.36c2.552-2.753,4.045-5.931,4.603-9.638c0.611-4.056,0.337-8.109,1.404-12.114     c2.512-9.417,13.332-12.279,21.771-13.681c-0.387-0.387-0.774-0.774-1.161-1.161c-1.272,3.681-1.412,7.646-0.747,11.459     c0.457,2.623,0.995,4.979,0.267,7.613c-0.671,2.421-2.438,4.408-4.503,5.75c-3.94,2.562-8.569,0.168-12.579,2.327     c-1.407,0.757-2.379,2.198-3.191,3.52c-1.472,2.395-2.71,4.709-4.586,6.847c-0.799,0.911,0.53,2.251,1.335,1.335     c1.614-1.84,2.99-3.794,4.163-5.945c1.529-2.802,3.13-4.868,6.603-4.934c2.245-0.042,4.276,0.293,6.486-0.305     c1.707-0.461,3.214-1.454,4.552-2.575c3.073-2.572,4.324-6.646,3.915-10.522c-0.253-2.396-0.938-4.677-0.986-7.104     c-0.047-2.357,0.323-4.738,1.093-6.964c0.258-0.746-0.512-1.269-1.161-1.161C64.13,7.389,55.154,9.77,50.623,16.752     c-2.01,3.097-2.581,6.989-2.876,10.591c-0.452,5.511-0.533,10.396-4.506,14.682C42.415,42.916,43.746,44.254,44.575,43.36     L44.575,43.36z"></path></g></g><g><g><path fill="#000000" d="M17.795,75.976c-4.572-6.38-3.366-14.785,2.792-19.644c0.955-0.753-0.391-2.079-1.335-1.334     c-6.766,5.338-8.102,14.931-3.086,21.931C16.868,77.908,18.506,76.968,17.795,75.976L17.795,75.976z"></path></g></g><g><g><path fill="#000000" d="M66.355,47.617c7.188,1.641,14.329-2.241,18.562-7.856c0.733-0.973-0.906-1.911-1.629-0.952     c-3.697,4.904-10.139,8.426-16.432,6.988C65.673,45.526,65.169,47.346,66.355,47.617L66.355,47.617z"></path></g></g><g><g><path fill="#000000" d="M65.8,12.094c-6.022,4.03-10.526,10.696-13.327,17.238c-0.474,1.105,1.151,2.068,1.629,0.952     c2.671-6.237,6.895-12.708,12.651-16.561C67.759,13.05,66.814,11.415,65.8,12.094L65.8,12.094z"></path></g></g><g><g><path fill="#000000" d="M36.854,12.606c-2.05,4.81-2.987,10.703-1.023,15.668c0.442,1.118,2.269,0.631,1.82-0.502     c-1.774-4.485-0.872-10.215,0.833-14.214C38.955,12.453,37.33,11.49,36.854,12.606L36.854,12.606z"></path></g></g></g></svg>
