<svg fill="#70C041" xmlns="http://www.w3.org/2000/svg" xmlns:xlink="http://www.w3.org/1999/xlink" version="1.1" x="0px" y="0px" viewBox="0 0 100 100" enable-background="new 0 0 100 100" xml:space="preserve"><path d="M51.201,32.908c0.269-0.361,2.631-3.619,2.631-6.835c0-1.719-0.65-8.136-3.833-8.136c-3.183,0-3.833,6.417-3.833,8.136  c0,3.217,2.361,6.475,2.631,6.835l1.202,1.611L51.201,32.908z M49.166,26.072c0-1.769,0.429-3.536,0.833-4.521  c0.404,0.985,0.833,2.752,0.833,4.521c0,0.962-0.384,2.059-0.835,3.002C49.547,28.134,49.166,27.04,49.166,26.072z"></path><path d="M32.489,34.913c2.274,2.275,6.248,2.909,6.694,2.974l1.989,0.289l-0.289-1.989c-0.064-0.446-0.698-4.42-2.972-6.694  c-1.435-1.435-4.528-3.711-6.723-3.711c-0.886,0-1.436,0.363-1.74,0.668c-0.944,0.943-0.891,2.461,0.159,4.512  C30.309,32.333,31.386,33.811,32.489,34.913z M35.789,31.615c0.68,0.679,1.183,1.724,1.531,2.709  c-0.985-0.349-2.03-0.852-2.71-1.532c-1.252-1.251-2.198-2.805-2.608-3.788C33.012,29.421,34.567,30.392,35.789,31.615z"></path><path d="M24.235,50.079c1.465,0.474,3.271,0.756,4.831,0.756v-1.5v-1.5c-1.767,0-3.531-0.429-4.516-0.832  c0.985-0.404,2.751-0.833,4.522-0.833c0.961,0,2.054,0.383,2.997,0.833c-0.943,0.45-2.038,0.833-2.999,0.833l-0.003,1.5l0.005,1.5  c0,0,0,0,0,0c3.215,0,6.472-2.361,6.833-2.63l1.61-1.202l-1.61-1.202c-0.36-0.27-3.616-2.631-6.839-2.631  c-1.718,0-8.132,0.65-8.132,3.832C20.934,48.335,22.044,49.371,24.235,50.079z"></path><path d="M39.185,56.119c-0.445,0.064-4.419,0.696-6.694,2.972c-1.103,1.103-2.181,2.58-2.882,3.953  c-1.049,2.05-1.103,3.568-0.161,4.51c0.305,0.306,0.854,0.67,1.742,0.67c2.194,0,5.287-2.277,6.722-3.713  c2.273-2.272,2.909-6.245,2.974-6.691l0.29-1.988L39.185,56.119z M31.189,66.724l-0.007-1.5c0.002,0,0.004,0,0.007,0V66.724z   M35.79,62.39c-1.221,1.223-2.775,2.193-3.785,2.611c0.411-0.982,1.356-2.537,2.608-3.789c0.681-0.681,1.727-1.184,2.713-1.532  C36.978,60.663,36.474,61.706,35.79,62.39z"></path><path d="M46.168,67.931c0,1.719,0.651,8.136,3.834,8.136c1.333,0,2.369-1.111,3.076-3.304c0.474-1.466,0.756-3.273,0.755-4.831  c0.001-3.216-2.359-6.475-2.629-6.835l-1.201-1.611l-1.203,1.61C48.531,61.456,46.168,64.713,46.168,67.931z M50.003,64.929  c0.449,0.94,0.831,2.035,0.83,3.003c0,1.768-0.428,3.533-0.832,4.519c-0.404-0.985-0.833-2.751-0.833-4.52  C49.168,66.968,49.552,65.872,50.003,64.929z"></path><path d="M60.817,56.116l-1.988-0.29l0.288,1.989c0.064,0.446,0.696,4.419,2.973,6.694c1.434,1.435,4.526,3.71,6.722,3.711h0.001  c0.886,0,1.436-0.364,1.74-0.668c0.943-0.943,0.89-2.461-0.16-4.512c-0.702-1.371-1.779-2.848-2.883-3.951  C65.236,56.816,61.264,56.182,60.817,56.116z M68.812,65.221c0.003,0,0.005-0.001,0.007-0.001l-0.007,1.501V65.221z M64.211,62.389  c-0.68-0.68-1.183-1.725-1.531-2.709c0.985,0.349,2.029,0.852,2.709,1.531c1.251,1.252,2.197,2.805,2.608,3.787  C66.986,64.58,65.432,63.61,64.211,62.389z"></path><path d="M62.483,46.998l1.61,1.203c0.36,0.27,3.616,2.632,6.835,2.632c1.719,0,8.136-0.651,8.136-3.834  c0-3.182-6.417-3.832-8.136-3.832c-3.216,0-6.474,2.36-6.834,2.629L62.483,46.998z M70.929,46.167c1.768,0,3.534,0.429,4.52,0.833  c-0.985,0.404-2.752,0.833-4.52,0.833c-0.963,0-2.059-0.384-3.002-0.835C68.867,46.549,69.961,46.167,70.929,46.167z"></path><path d="M60.813,37.884c0.445-0.064,4.419-0.696,6.694-2.973c1.103-1.103,2.18-2.58,2.882-3.952c1.05-2.051,1.104-3.568,0.16-4.511  c-0.305-0.305-0.854-0.668-1.74-0.668c-2.194,0-5.288,2.276-6.722,3.711c-2.274,2.274-2.909,6.247-2.974,6.693l-0.289,1.988  L60.813,37.884z M64.209,31.612c1.22-1.22,2.771-2.19,3.784-2.608c-0.411,0.983-1.356,2.536-2.606,3.786  c-0.682,0.681-1.728,1.185-2.713,1.533C63.021,33.34,63.524,32.296,64.209,31.612z"></path><path d="M50,42.764c-2.336,0-4.237,1.901-4.237,4.237c0,2.336,1.9,4.236,4.237,4.236c2.336,0,4.236-1.9,4.236-4.236  C54.236,44.665,52.336,42.764,50,42.764z"></path><path d="M93.577,47.001c0,0,0-0.001,0-0.002c0-1.118-0.647-2.153-1.776-2.841c-0.324-0.197-7.09-4.248-16.699-5.293  c4.807-6.808,6.395-13.12,6.466-13.415c0.077-0.32,0.119-0.636,0.126-0.94l-1.5-0.03h1.501v-6.284h-0.036  c-0.052-0.782-0.324-1.487-0.846-2.009c-0.791-0.791-1.981-1.066-3.266-0.754c-0.423,0.103-10.451,2.616-18.876,11.044l-0.002-0.002  c-0.112,0.112-0.207,0.235-0.314,0.351c0.006-0.157,0.026-0.312,0.026-0.47c0-11.917-5.314-20.784-5.541-21.156  c-0.688-1.129-1.724-1.777-2.842-1.777c-1.118,0-2.153,0.647-2.84,1.777c-0.226,0.372-5.541,9.238-5.541,21.156h0  c0,0.159,0.021,0.313,0.026,0.472c-0.107-0.116-0.202-0.239-0.314-0.352c-8.427-8.425-18.454-10.938-18.877-11.042  c-1.285-0.314-2.475-0.038-3.266,0.753c-0.521,0.522-0.794,1.227-0.846,2.008h-0.034v6.284h1.489l-1.488,0.03  c0.006,0.306,0.049,0.624,0.129,0.954c0.074,0.295,1.707,6.651,6.465,13.402c-9.61,1.046-16.377,5.097-16.701,5.294  c-1.129,0.688-1.776,1.723-1.776,2.841h0v6c0,1.118,0.648,2.153,1.777,2.841c0.309,0.188,7.083,4.236,16.704,5.285  c-4.794,6.782-6.388,13.089-6.469,13.422c-0.08,0.329-0.119,0.65-0.124,0.962h-0.004v6.125h1.501l-1.5,0.044  c0.029,0.988,0.444,1.836,1.167,2.388c0.543,0.414,1.216,0.626,1.956,0.626c0.329,0,0.671-0.042,1.02-0.127  c0.423-0.103,10.451-2.616,18.877-11.042l-2.121-2.121c-7.809,7.809-17.371,10.226-17.465,10.248  c-0.275,0.067-0.428,0.038-0.416,0.066c0,0-0.017-0.036-0.02-0.126h0v-2.91c0.044,0.002,0.084,0.012,0.129,0.012  c0.328,0,0.668-0.042,1.016-0.127c0.423-0.103,10.451-2.616,18.877-11.042l-2.121-2.121c-7.809,7.809-17.371,10.226-17.465,10.248  c-0.275,0.067-0.428,0.038-0.416,0.066c-0.016-0.032-0.044-0.185,0.022-0.46c0.023-0.096,2.411-9.627,10.248-17.466  c3.417-3.417,9.09-4.018,11.715-4.104c-0.086,2.625-0.688,8.298-4.104,11.715l2.121,2.121c0.112-0.112,0.208-0.236,0.315-0.353  c-0.005,0.158-0.026,0.312-0.026,0.472v0.121c-0.642,1.447-1.448,2.676-2.411,3.639l2.122,2.121  c0.101-0.101,0.191-0.217,0.289-0.321v0.44c0,11.916,5.315,20.785,5.541,21.157c0.688,1.129,1.723,1.776,2.841,1.776  c1.118,0,2.153-0.647,2.841-1.776c0.227-0.372,5.54-9.241,5.539-21.157v-0.44c0.098,0.104,0.188,0.221,0.288,0.321l2.123-2.121  c-0.966-0.966-1.772-2.196-2.414-3.646c0-0.038,0.003-0.075,0.003-0.114h0.002c0-0.159-0.021-0.314-0.026-0.474  c0.107,0.116,0.203,0.24,0.315,0.353c8.425,8.427,18.454,10.94,18.877,11.044c0.348,0.084,0.688,0.126,1.016,0.126  c0.044,0,0.085-0.01,0.129-0.012v2.912h-0.001c-0.002,0.045-0.007,0.076-0.006,0.091c-0.062,0.015-0.205,0.021-0.428-0.031  c-0.096-0.023-9.658-2.44-17.467-10.249l-2.121,2.121c8.426,8.426,18.454,10.939,18.877,11.043c0.35,0.084,0.691,0.126,1.02,0.126  c0.74,0,1.415-0.212,1.958-0.627c0.723-0.552,1.137-1.399,1.165-2.388l-1.499-0.043h1.502v-6.125h-0.004  c-0.004-0.312-0.043-0.634-0.123-0.963c-0.081-0.333-1.675-6.64-6.469-13.421c9.621-1.049,16.395-5.097,16.703-5.285  c1.13-0.688,1.777-1.724,1.777-2.841L93.577,47.001L93.577,47.001z M90.581,46.968c-0.012,0.034-0.099,0.162-0.339,0.309  c-0.084,0.051-8.553,5.104-19.596,5.104c0,0-0.002,0-0.003,0c-4.833,0-9.269-3.585-11.187-5.38  c1.918-1.795,6.354-5.382,11.186-5.384v0.002c0.002,0,0.002,0,0.003,0c11.043,0,19.513,5.052,19.595,5.103  C90.477,46.865,90.572,47.007,90.581,46.968z M70.646,38.618c0,0-0.001,0-0.002,0v-0.002c-0.157,0-0.31,0.02-0.466,0.026  c0.114-0.106,0.234-0.203,0.345-0.314c2.171-2.17,3.942-4.445,5.389-6.637c-1.07,2.129-2.507,4.544-4.377,6.952  C71.236,38.636,70.946,38.618,70.646,38.618z M60.789,28.597l0.002,0.002C68.6,20.787,78.162,18.37,78.255,18.347  c0.275-0.066,0.429-0.037,0.417-0.064c0.016,0.032,0.045,0.185-0.021,0.458c-0.023,0.096-2.44,9.658-10.249,17.467  c-3.418,3.417-9.09,4.019-11.714,4.105C56.774,37.688,57.375,32.015,60.789,28.597z M44.617,26.355  c0-11.044,5.053-19.513,5.103-19.596c0.147-0.242,0.275-0.329,0.248-0.34c0.033,0.011,0.162,0.099,0.309,0.34  c0.051,0.084,5.104,8.511,5.104,19.596c0,4.833-3.59,9.272-5.384,11.189C48.202,35.633,44.617,31.207,44.617,26.355L44.617,26.355z   M21.74,18.349c0.096,0.023,9.657,2.44,17.467,10.248c3.418,3.418,4.018,9.095,4.104,11.719c-2.621-0.083-8.285-0.677-11.715-4.108  c-7.809-7.809-10.225-17.37-10.248-17.464c-0.04-0.163-0.04-0.286-0.042-0.356v-0.064C21.353,18.308,21.49,18.288,21.74,18.349z   M24.052,31.638c1.452,2.208,3.234,4.503,5.423,6.691c0.111,0.111,0.232,0.209,0.346,0.316c-0.155-0.006-0.307-0.026-0.464-0.026  c0,0-0.001,0-0.001,0c-0.301,0-0.592,0.018-0.889,0.024C26.572,36.206,25.122,33.772,24.052,31.638z M9.758,46.724  c0.084-0.051,8.554-5.104,19.598-5.104c0.001,0,0.001,0,0.001,0c4.833,0,9.271,3.589,11.187,5.384  c-1.911,1.794-6.336,5.379-11.188,5.38v-0.001c-11.043,0-19.513-5.052-19.596-5.103c-0.236-0.144-0.318-0.258-0.337-0.246v-0.008  C9.439,46.986,9.527,46.864,9.758,46.724z M27.084,58.301c-9.906-0.606-17.252-4.977-17.325-5.021  c-0.232-0.142-0.32-0.263-0.337-0.303v-2.461c2.849,1.479,10.41,4.867,19.933,4.867v0.001c0.159,0,0.314-0.021,0.472-0.026  c-0.116,0.107-0.239,0.202-0.351,0.314C28.613,56.534,27.827,57.416,27.084,58.301z M55.381,67.644  c0.001,11.044-5.051,19.515-5.102,19.597c-0.147,0.242-0.276,0.329-0.248,0.341c-0.033-0.012-0.162-0.099-0.309-0.341  c-0.051-0.083-5.104-8.513-5.104-19.597c0-4.833,3.586-9.269,5.381-11.187c1.795,1.918,5.382,6.354,5.383,11.187H55.381z   M50.032,93.581c-0.033-0.012-0.162-0.099-0.309-0.341c-0.02-0.031-0.76-1.27-1.67-3.394c0.572,0.473,1.244,0.73,1.948,0.73  c0.701,0,1.37-0.255,1.94-0.724c-0.907,2.119-1.643,3.355-1.662,3.387C50.132,93.482,50.003,93.569,50.032,93.581z M50.997,53.218  L50,52.332l-0.997,0.886c-0.125,0.111-1.421,1.287-2.891,3.167c0.29-2.368,0.205-4.115,0.195-4.282l-0.078-1.331l-1.331-0.079  c-0.168-0.009-1.916-0.094-4.285,0.196c1.88-1.47,3.056-2.766,3.167-2.891l0.886-0.997l-0.886-0.997  c-0.111-0.125-1.286-1.419-3.164-2.889c1.416,0.174,2.611,0.214,3.375,0.214c0.515,0,0.836-0.017,0.903-0.021l1.331-0.078  l0.079-1.332c0.01-0.167,0.095-1.916-0.195-4.285c1.47,1.88,2.766,3.057,2.891,3.168l0.997,0.886l0.997-0.886  c0.125-0.111,1.422-1.288,2.893-3.169c-0.29,2.369-0.205,4.118-0.195,4.285l0.078,1.331l1.331,0.079  c0.067,0.004,0.389,0.021,0.905,0.021c0.765,0,1.96-0.041,3.375-0.214c-1.878,1.469-3.053,2.763-3.164,2.888L55.332,47l0.886,0.997  c0.111,0.125,1.287,1.42,3.167,2.89c-2.369-0.29-4.116-0.205-4.283-0.195l-1.331,0.078l-0.078,1.332  c-0.01,0.167-0.095,1.915,0.195,4.284C52.418,54.506,51.121,53.329,50.997,53.218z M78.696,75.511h-0.003v0.166  c-0.047,0.017-0.185,0.034-0.436-0.025c-0.096-0.023-9.628-2.411-17.465-10.25c-3.417-3.417-4.019-9.089-4.105-11.714  c2.625,0.087,8.299,0.688,11.717,4.103l-0.002,0.002c7.81,7.809,10.227,17.371,10.249,17.465  C78.677,75.36,78.688,75.442,78.696,75.511z M90.24,53.279c-0.074,0.045-7.381,4.414-17.324,5.021  c-0.743-0.885-1.529-1.767-2.393-2.63l0.002-0.002c-0.112-0.112-0.236-0.208-0.353-0.315c0.158,0.006,0.312,0.026,0.471,0.026  c0.001,0,0.002,0,0.003,0c9.521,0,17.083-3.388,19.932-4.867v2.462C90.561,53.016,90.473,53.138,90.24,53.279z"></path></svg>