<svg fill="#C20114" xmlns="http://www.w3.org/2000/svg" xmlns:xlink="http://www.w3.org/1999/xlink" version="1.1" x="0px" y="0px" viewBox="0 0 100 100" enable-background="new 0 0 100 100" xml:space="preserve"><path d="M97.107,29.028c-0.137-0.09-0.496-0.301-0.896-0.301c-0.455,0-0.84,0.268-0.998,0.681c-0.08,0.073-0.246,0.184-0.4,0.273  l-1.643,0.077c-0.416,0.021-0.762,0.334-0.818,0.748v0.001c-0.232,0.007-0.416,0.024-0.576,0.064  c-0.006,0.001-0.055,0.014-0.172,0.014c-0.018,0-0.037,0-0.053-0.001l-0.299-0.357l0.125-0.271c0.121-0.27,0.1-0.582-0.061-0.831  c-0.02-0.029-0.039-0.057-0.062-0.083c0.02-0.307-0.043-0.565-0.186-0.773c-0.189-0.277-0.49-0.436-0.834-0.436  c-0.256,0-0.49,0.084-0.719,0.167c-0.014,0.005-0.029,0.011-0.047,0.018c-0.145-0.417-0.246-0.723-0.248-0.727  c-0.072-0.219-0.229-0.399-0.434-0.503c-0.123-0.061-0.256-0.092-0.389-0.092c-0.094,0-0.186,0.015-0.275,0.044  c-0.021,0.007-0.127,0.033-0.217,0.033c-0.008,0-0.012-0.001-0.016-0.001c-0.006,0-0.006,0.001-0.006,0.002  c-0.264-0.125-0.586-0.173-0.957-0.229c-0.105-0.016-0.256-0.038-0.377-0.062c-0.037-0.164-0.07-0.387-0.09-0.583l-0.09-0.957  c-0.012-0.127-0.051-0.25-0.115-0.36l-0.875-1.488c-0.037-0.062-0.08-0.12-0.133-0.171c0.002,0,0.002,0,0.002,0  c0.002,0-0.01-0.022-0.014-0.032c0.004-0.356-0.139-1.309-0.184-1.591c-0.01-0.071-0.031-0.139-0.057-0.204l-0.701-1.663  c-0.053-0.131-0.141-0.246-0.25-0.334l-0.961-0.789l-0.967-0.788c-0.154-0.126-0.348-0.196-0.549-0.196h-0.777l-0.914-0.634  c-0.111-0.077-0.24-0.126-0.371-0.146c-0.037-0.005-0.887-0.125-1.564-0.125c-0.441,0-0.893,0.041-1.217,0.318  c-0.139,0.075-0.543,0.228-0.818,0.329c-1.031,0.386-1.547,0.579-1.727,1.117c-0.023,0.061-0.168,0.278-0.291,0.433  c-0.121,0.153-0.188,0.343-0.188,0.54v0.437c0,0.392,0.262,0.735,0.641,0.837l0.186,0.051l-0.074,0.402l-0.562,0.707  c-0.043,0.053-0.078,0.111-0.107,0.173l-0.613,1.313c-0.105,0.223-0.107,0.478-0.016,0.701c-0.41,0.379-0.943,0.96-1.066,1.096  c-0.146,0.16-0.227,0.368-0.227,0.584v0.505c-0.016,0.013-0.031,0.024-0.045,0.031c-0.102,0.051-0.359,0.084-0.488,0.084H70.52  l-0.234-0.141c-0.139-0.082-0.293-0.123-0.445-0.123c-0.162,0-0.32,0.044-0.463,0.133l-1.398,0.876  c-0.104,0.066-0.193,0.152-0.262,0.254l-1.051,1.576c-0.094,0.142-0.145,0.31-0.145,0.481v1.925c0,0.436,0.32,0.796,0.738,0.858  c0.021,0.014,0.066,0.043,0.131,0.105c0.385,0.389,1.223,0.621,2.49,0.692c0.018,0,0.033,0,0.049,0c0.104,0,0.207-0.018,0.305-0.056  l0.699-0.263c0.062-0.023,0.119-0.053,0.174-0.088l0.625-0.415c0.281-0.036,0.502-0.053,0.682-0.053c0.008,0,0.014,0,0.021,0  c0.027,0.086,0.061,0.183,0.088,0.262c0.145,0.43,0.25,0.748,0.416,0.978h-0.445c-0.127-0.045-0.279-0.078-0.463-0.078  c-0.217,0-0.445,0.047-0.676,0.141c-0.045,0.016-0.186,0.03-0.281,0.039c-0.369,0.036-1.061,0.103-1.453,0.758  c-0.059,0.097-0.148,0.17-0.219,0.215l-0.545,0.068c-0.289,0.037-0.541,0.215-0.67,0.476c-0.125,0.248-0.467,0.545-0.602,0.643  c-0.039,0.028-0.076,0.058-0.109,0.092l-0.111,0.112l-1.59,0.072c-0.287,0.014-0.549,0.166-0.699,0.409  c-0.186,0.298-0.463,0.694-0.576,0.809l-0.041,0.04c-0.322,0.03-0.645,0.055-0.746,0.055h-0.701c-0.918,0-2.08,0.356-2.33,1.358  c-0.146,0.59-0.113,1.029-0.049,1.313l-0.035,0.208c-0.115,0.157-0.457,0.458-0.627,0.608c-0.229,0.201-0.4,0.352-0.52,0.509  c-0.068,0.047-0.213,0.126-0.311,0.18c-0.285,0.155-0.578,0.314-0.785,0.554c-0.223,0.107-0.826,0.255-1.033,0.259H55.66  c-0.037,0-0.076,0.002-0.113,0.007l-1.314,0.175c-0.119,0.016-0.23,0.056-0.334,0.117l-0.982,0.594l-1.602,0.785  c-0.057,0.004-0.123,0.006-0.197,0.006c-0.111,0-0.182-0.007-0.217-0.012c-0.277-0.171-1.218-0.72-1.891-0.72  c-0.083,0-0.166,0.008-0.244,0.023c-0.185-0.007-0.651-0.125-0.97-0.231l-1.738-0.609c-0.035-0.012-0.07-0.023-0.107-0.03  c-0.654-0.138-1.811-0.369-2.193-0.369h-1.838c-0.1,0-0.354-0.04-0.557-0.072c-0.354-0.057-0.756-0.121-1.119-0.121  c-0.144,0-0.272,0.009-0.395,0.03c-0.016,0.003-0.084,0.013-0.237,0.013c-0.274,0-0.625-0.031-0.895-0.061  c-0.419-0.573-0.798-1.163-0.919-1.433c0.103-0.156,0.332-0.513,0.195-0.971c-0.098-0.32-0.34-0.565-0.721-0.729  c-0.088-0.038-0.091-0.042-0.145-0.103c-0.25-0.291-0.542-0.5-1.142-0.574c-0.296-0.037-1.2-0.514-1.825-0.918  c-0.115-0.073-0.241-0.118-0.373-0.134c-0.088-0.009-0.85-0.093-1.324-0.093c-0.188-0.004-0.976-0.155-1.734-0.319l-0.262-0.63  c0.277-0.266,0.503-0.622,0.503-1.158c0-0.121,0.04-0.39,0.067-0.534c0.013-0.055,0.018-0.11,0.018-0.167v-0.7  c0-0.125-0.027-0.248-0.078-0.361l-0.681-1.488c-0.093-0.201-0.255-0.359-0.46-0.442l-2.018-0.83v-0.381  c0-0.337-0.195-0.644-0.501-0.786l-1.212-0.565l-0.965-0.803c-0.157-0.132-0.355-0.201-0.555-0.201c-0.115,0-0.231,0.023-0.342,0.07  l-0.612,0.262c-0.319,0.137-0.526,0.451-0.526,0.798v0.354l-0.163,0.123l-0.551,0.062c-0.229,0.025-0.438,0.14-0.583,0.319  l-1.051,1.313c-0.164,0.203-0.227,0.469-0.174,0.723l0.143,0.67c-0.243-0.064-0.488-0.109-0.693-0.109  c-0.199,0-0.379,0.038-0.533,0.114c-0.045,0.004-0.125,0.01-0.257,0.01c-0.513,0-1.204-0.078-1.21-0.079  c-0.032-0.004-0.066-0.006-0.1-0.006c-0.308,0-0.594,0.165-0.752,0.436l-0.613,1.066c-0.156,0.272-0.152,0.608,0.009,0.877  c-0.5,0.47-0.618,1.125-0.639,1.27c-0.026,0.175,0.003,0.353,0.081,0.511l0.062,0.125c-0.005-0.002-0.008-0.003-0.014-0.005  c-0.082-0.034-0.377-0.141-0.725-0.141c-0.295,0-0.559,0.076-0.779,0.225c-0.104,0.068-0.408,0.19-0.582,0.248  c-0.062,0.022-0.127,0.051-0.184,0.087l-0.702,0.438c-0.254,0.158-0.408,0.436-0.408,0.736v0.525c0,0.135,0.031,0.268,0.091,0.389  l0.366,0.728l0.071,0.8c0.003,0.038,0.01,0.074,0.019,0.111l0.162,0.732l0.04,0.436l-0.414,0.322  c-0.029,0.022-0.057,0.046-0.082,0.071c-0.119,0.122-0.508,0.561-0.438,1.151h-0.005c-0.068,0.008-0.133,0.022-0.195,0.045  l-1.178,0.42c-0.957,0.226-1.293,0.647-1.386,1.03c-0.016,0.016-0.036,0.033-0.058,0.05l-1.745,0.396  c-0.344,0.078-0.604,0.356-0.663,0.704c-0.026,0.161-0.08,0.356-0.127,0.489c-0.23,0.042-0.522,0.084-0.699,0.105  c-0.086,0.01-0.168,0.034-0.246,0.068c-0.289,0.13-0.58,0.204-0.838,0.27c-0.369,0.095-0.75,0.192-1.03,0.459  c-0.243,0.165-0.353,0.442-0.423,0.618c-0.07,0.106-0.51,0.475-0.902,0.738c-0.141,0.095-0.252,0.23-0.318,0.387  c-0.239,0.573-0.242,1.101-0.027,1.481c-0.035,0.23-0.049,0.572,0.17,0.892c0.121,0.178,0.352,0.402,0.773,0.477  c0.154,0.027,0.257,0.033,0.324,0.033c0.002,0,0.004,0,0.006,0l0,0l0.552,0.236c0.077,0.05,0.16,0.111,0.221,0.164  c-0.015,0.135-0.022,0.331,0.029,0.552c-0.027,0.048-0.052,0.099-0.071,0.152c-0.172,0.485,0.105,0.814,0.346,1.104  c0.074,0.088,0.129,0.157,0.172,0.213c0.323,0.408,0.492,0.498,0.994,0.639l0.137,0.039c0.119,0.034,0.229,0.057,0.334,0.066  c0.047,0.049,0.099,0.097,0.157,0.143c0.007,0.016,0.017,0.029,0.022,0.045l0.35,0.699c0.029,0.061,0.068,0.117,0.109,0.169  c0.121,0.146,0.545,0.64,0.888,0.867c0.056,0.039,0.127,0.107,0.21,0.183c0.143,0.129,0.299,0.271,0.473,0.401  c0.009,0.063,0.021,0.114,0.031,0.146c0.113,0.361,0.451,0.609,0.832,0.609c0.189,0,0.203-0.006,0.918-0.292  c0.508-0.202,0.782-0.347,0.965-0.463c0.01,0,0.019,0,0.029,0c0.049,0,0.09,0.005,0.125,0.013c-0.092,0.225-0.268,0.575-0.438,0.869  c-0.078,0.133-0.119,0.283-0.119,0.438v0.963c0,0.188,0.06,0.369,0.172,0.52c0.062,0.08,0.242,0.342,0.356,0.57  c0.071,0.143,0.071,0.143,0.009,0.516c-0.033,0.052-0.257,0.245-0.444,0.352c-0.187,0.106-0.331,0.279-0.399,0.483  c-0.1,0.299-0.244,0.87-0.086,1.34c0.11,0.331,0.414,0.804,0.539,0.991c0.1,0.146,0.236,0.258,0.399,0.322  c0.155,0.064,0.349,0.188,0.433,0.269c-0.002,0.045-0.009,0.099-0.016,0.159c-0.096,0.802,0.236,1.315,0.981,1.527  c0.192,0.055,0.306,0.086,0.394,0.104c0.037,0.012,0.093,0.03,0.182,0.061c0.152,0.051,0.302,0.077,0.449,0.077  c0.264,0,0.463-0.082,0.596-0.156c0.02,0.009,0.042,0.019,0.066,0.032c0.255,0.127,0.404,0.215,0.51,0.277  c0.372,0.218,0.523,0.265,1.084,0.334c0.216,0.035,0.863,0.381,1.533,0.811c0.158,0.588,0.895,0.833,1.362,0.989  c0.485,0.161,0.821,0.307,1.118,0.435c0.492,0.213,0.917,0.397,1.521,0.397c0.152,0.003,0.578,0.267,0.832,0.424  c0.393,0.243,0.795,0.493,1.231,0.601c0.276,0.069,0.573,0.104,0.886,0.104c0.508,0,0.895-0.093,0.936-0.104  c0.075-0.018,0.146-0.046,0.213-0.082l0.272-0.152c0.034,0.03,0.06,0.053,0.073,0.067c0.17,0.182,0.406,0.284,0.666,0.284  c0.156,0,0.408,0,1.078-0.472l0.561-0.063c0.002,0,0.347-0.033,0.68-0.033c0.238,0,0.343,0.018,0.369,0.023  c0.301,0.061,0.547,0.061,0.726,0.061c0.018,0,0.034,0,0.05,0c0.002,0.004,0.002,0.008,0.004,0.012  c0.044,0.148,0.1,0.334,0.189,0.518l0.174,0.346c0.146,0.295,0.448,0.481,0.776,0.481h2.539c0.065,0,0.134-0.009,0.202-0.024  c0.818-0.195,1.85-0.409,2.074-0.416c0.447,0,0.765-0.18,0.953-0.287c0.039-0.022,0.078-0.049,0.121-0.064  c0.129,0.004,0.512,0.087,0.762,0.141c0.372,0.081,0.593,0.126,0.789,0.126c0.303,0,0.609-0.1,0.809-0.181  c0.021,0.189,0.006,0.35-0.014,0.533c-0.022,0.252-0.052,0.537,0.018,0.881c0.053,0.262,0.137,0.689,0.196,0.984  c-0.109,0.217-0.228,0.518-0.29,0.883l-0.071,0.43c-0.049,0.118-0.104,0.264-0.153,0.417c-0.256,0.112-0.456,0.346-0.512,0.633  c-0.137,0.714,0.477,0.957,0.921,1.136l0.724,0.29c0.011,0.011,0.021,0.025,0.029,0.042c-0.053,0.471,0.328,0.895,0.674,1.28  c0.209,0.231,0.285,0.335,0.31,0.37c0.116,0.271,0.27,0.381,0.62,0.631c0.643,0.459,1.271,0.82,1.297,0.834  c0.133,0.076,0.281,0.115,0.432,0.115h0.264c0.17,0,0.335-0.049,0.476-0.141c0.226,0.182,0.567,0.355,1.051,0.355  c0.36,0,0.687-0.094,0.95-0.17c0.068-0.02,0.133-0.039,0.191-0.053c0.018,0.002,0.036,0.002,0.055,0.002  c0.15,0,0.207-0.02,0.529-0.127c0.197-0.066,0.456-0.168,0.719-0.271c0.252-0.098,0.662-0.262,0.812-0.297  c0.333-0.016,0.612-0.156,0.839-0.271c0.084-0.043,0.189-0.096,0.242-0.111c0.126-0.033,0.46-0.123,1.359-0.973  c0.609,0.079,1.248,0.185,1.447,0.255c0.092,0.032,0.199,0.067,0.316,0.106c0.227,0.072,0.734,0.238,0.922,0.365  c0.037,0.096,0.062,0.176,0.088,0.252c0.074,0.227,0.152,0.461,0.355,0.838l0.215,0.391l0.051,0.092c0,0.002,0,0.004,0.002,0.004  c0.041,0.076,0.092,0.145,0.156,0.205c0.166,0.164,0.385,0.248,0.605,0.248c0.084,0,0.172-0.014,0.254-0.039  c0.096,0.002,0.26,0.01,0.543,0.035c0.275,0.027,0.574,0.041,0.883,0.043c-0.004,0.213,0.088,0.408,0.199,0.615  c-0.01,0.07-0.014,0.141-0.008,0.211c0.047,0.504,0.396,0.68,0.801,0.883c0.1,0.049,0.154,0.082,0.182,0.1  c0.287,0.342,0.645,0.342,0.906,0.342h0.439c0.26,0,0.506-0.117,0.672-0.318c0.164-0.201,0.23-0.465,0.18-0.719  c-0.029-0.139-0.053-0.291-0.07-0.428c0.154-0.047,0.316-0.094,0.5-0.123c0.58-0.096,1.971-0.67,2.381-0.844  c0.025-0.012,0.053-0.023,0.078-0.037c1.355-0.732,3.059-1.559,3.479-1.645c0.613,0,0.932-0.002,1.443-0.105  c0.291-0.059,0.564-0.178,0.83-0.293c0.223-0.098,0.455-0.198,0.633-0.229c0.594-0.099,0.844-0.334,1.066-0.588  c0.062-0.07,0.113-0.127,0.207-0.203c0.408-0.326,0.541-0.729,0.621-0.969c0.004-0.009,0.008-0.019,0.012-0.029  c0.832-0.5,2.176-2.428,2.312-2.699c0.053-0.105,0.193-0.287,0.305-0.434c0.176-0.225,0.357-0.457,0.484-0.708  c0.152-0.306,0.189-0.61,0.215-0.833c0.008-0.058,0.012-0.115,0.023-0.166c0.232-0.363,1.033-1.643,1.033-1.643  c0.029-0.047,0.055-0.098,0.074-0.149c0.182-0.472,0.428-0.997,0.525-1.121c0.379-0.378,0.475-1.079,0.492-1.554l0.467-1.168  c0.141-0.352,0.037-0.754-0.256-0.994l-0.379-0.308c0.141-0.251,0.268-0.52,0.32-0.733c0.07-0.282,0.07-0.588,0.07-0.857  c0-0.107,0-0.269,0.008-0.336c0.055-0.17,0.131-0.551-0.154-2.065c-0.021-0.118-0.068-0.23-0.137-0.329l-1.311-1.927  c-0.039-0.054-0.084-0.105-0.133-0.151l-1.631-1.494l0.332-0.714l0.51-0.945l1.855-1.373c0.035-0.026,0.066-0.054,0.096-0.083  c0.025,0.002,0.051,0.002,0.076,0.002c0.529,0,1.172-0.391,1.295-1.021c0.08-0.423-0.104-0.953-0.697-1.19  c-0.457-0.182-0.99-0.36-1.012-0.367c-0.047-0.016-0.096-0.027-0.143-0.035l-1.135-0.174c-0.043-0.007-0.09-0.011-0.135-0.011  c-0.131,0-0.266,0.031-0.387,0.092c-0.127,0.063-0.682,0.343-1.094,0.603c0.133-0.299,0.086-0.653-0.129-0.909l-0.438-0.523  c-0.102-0.124-0.238-0.216-0.391-0.267l-0.305-0.103l1.723-0.832c0.15-0.074,0.279-0.19,0.365-0.335l0.262-0.438  c0.051-0.08,0.084-0.167,0.104-0.258l0.096-0.429l0.836-0.514c0.002,0.144-0.002,0.302-0.014,0.448  c-0.027,0.06-0.164,0.19-0.277,0.258c-0.334,0.2-0.502,0.603-0.398,0.978l0.123,0.452c-0.148,0.237-0.148,0.473-0.102,0.662  c0.082,0.339,0.391,0.68,0.895,0.68c0.164,0,0.387-0.033,0.947-0.194c0.814-0.235,1.09-0.383,1.367-0.552  c0.115-0.069,0.184-0.111,0.418-0.189c0.678-0.225,1-0.523,1.191-0.7c0.014-0.012,0.023-0.023,0.033-0.034  c0.234-0.101,0.484-0.316,1.297-1.053c0.338-0.306,0.871-0.791,1.125-0.982c0.447-0.055,0.674-0.28,1.158-0.766  c0.33-0.332,0.613-0.748,0.842-1.083c0.074-0.109,0.166-0.247,0.234-0.338c0.221,0.056,0.428,0.114,0.592,0.163  c0.152,0.274,0.449,0.447,0.766,0.447c0.146,0,0.24-0.027,0.52-0.107c0.51-0.146,0.826-0.415,0.963-0.819  c0.311-0.135,0.859-0.335,1.107-0.398c0.523-0.13,0.889-0.557,1.186-0.899c0.064-0.076,0.125-0.148,0.184-0.205  c0.154-0.155,0.297-0.354,0.412-0.536c0.334-0.025,0.625-0.242,0.746-0.558c0.16-0.427,0.975-2.57,1.062-2.837  c0.035-0.105,0.109-0.333,0.072-1.527l0.611-0.153h1.207c0.479,0,0.867-0.388,0.867-0.868v-0.366l1.008-1.628  c0.084-0.137,0.131-0.295,0.131-0.457v-1.793c0.219-0.091,0.443-0.217,0.621-0.394c0.426-0.426,0.561-1.072,0.592-1.259  c0.006-0.047,0.012-0.095,0.012-0.143V29.75C97.494,29.46,97.35,29.189,97.107,29.028z M96.627,30.801c0,0-0.088,0.525-0.35,0.788  c-0.264,0.263-0.877,0.35-0.877,0.35v2.451l-1.137,1.838v0.613h-1.314l-1.4,0.351c0,0,0.086,1.663,0,1.925  c-0.088,0.262-1.053,2.801-1.053,2.801h-0.438c0,0-0.26,0.525-0.523,0.788c-0.26,0.262-0.613,0.789-0.965,0.876  c-0.346,0.088-1.311,0.438-1.574,0.612c-0.262,0.175,0.088,0.438-0.525,0.612c-0.178,0.051-0.254,0.073-0.277,0.073  c-0.059,0,0.176-0.125-0.072-0.248c-0.35-0.175-1.488-0.438-1.488-0.438s0,0-0.262,0.175s-0.699,1.051-1.225,1.576  s-0.525,0.525-0.789,0.525c-0.262,0-2.275,2.013-2.537,2.1c-0.266,0.088-0.354,0.438-1.141,0.701  c-0.785,0.262-0.436,0.35-1.748,0.73c-0.418,0.12-0.623,0.161-0.709,0.161c-0.186,0,0.184-0.189,0.184-0.189s0,0-0.264-0.963  c0,0,0.613-0.35,0.699-0.876c0,0,0.09-0.874-0.086-1.312c-0.176-0.437-0.088-0.7-0.088-0.7l-2.275,1.4l-0.176,0.788l-0.262,0.438  l-2.189,1.058c0,0-0.35-0.445-0.699-0.445s-0.439,0.445-0.439,0.445l-0.697,1.218l2.186,0.087l0.527,0.177l0.439,0.523l-0.352,0.613  c0,0,0.352,1.05,0.699,1.05c0.35,0,0.35-0.175,0.699-0.438c0.352-0.262,1.225-0.699,1.225-0.699l1.139,0.175  c0,0,0.525,0.175,0.963,0.351c0.398,0.159-0.002,0.536-0.275,0.536c-0.025,0-0.051-0.003-0.074-0.011  c-0.029-0.01-0.059-0.015-0.092-0.015c-0.246,0-0.521,0.276-0.521,0.276l-2.012,1.488l-0.615,1.138l-0.611,1.313l2.1,1.926  l1.314,1.927c0,0,0.264,1.4,0.174,1.661c-0.086,0.264,0,0.875-0.086,1.227c-0.088,0.35-0.613,1.138-0.613,1.138l0.963,0.786  l-0.525,1.314c0,0,0,0.875-0.264,1.139c-0.262,0.262-0.699,1.4-0.699,1.4s-0.877,1.398-1.049,1.664  c-0.176,0.262-0.088,0.701-0.264,1.051c-0.176,0.349-0.613,0.785-0.787,1.137c-0.176,0.351-1.576,2.188-2.014,2.363  s-0.262,0.701-0.699,1.049c-0.438,0.352-0.352,0.526-0.875,0.612c-0.527,0.089-1.053,0.439-1.49,0.527  c-0.436,0.088-0.699,0.088-1.311,0.088c-0.615,0-3.854,1.749-3.854,1.749s-1.662,0.701-2.189,0.789  c-0.523,0.088-0.875,0.262-1.137,0.262c-0.264,0,0,1.314,0,1.314s0,0-0.439,0c-0.436,0,0,0-0.697-0.352c-0.701-0.35,0,0-0.352-0.613  c-0.133-0.23-0.164-0.287-0.158-0.287s0.049,0.055,0.07,0.055c0.016,0,0.023-0.027,0.002-0.117c-0.09-0.35,0.086-0.877,0.086-0.877  s-0.391,0.041-0.934,0.041c-0.271,0-0.584-0.01-0.904-0.041c-0.32-0.027-0.523-0.037-0.654-0.037c-0.211,0-0.225,0.025-0.221,0.033  c-0.008-0.014-0.051-0.088-0.264-0.48c-0.262-0.482-0.262-0.652-0.438-1.09c-0.176-0.437-1.225-0.699-1.715-0.875  c-0.486-0.175-2.049-0.35-2.049-0.35s-0.962,0.963-1.285,1.049c-0.318,0.09-0.643,0.352-0.904,0.352s-1.224,0.438-1.75,0.611  c-0.193,0.066-0.243,0.082-0.252,0.082c-0.01,0,0.029-0.02-0.012-0.02c-0.024,0-0.074,0.006-0.174,0.027  c-0.276,0.055-0.658,0.215-1.011,0.215c-0.205,0-0.403-0.055-0.564-0.215c-0.146-0.146-0.301-0.195-0.442-0.195  c-0.285,0-0.52,0.195-0.52,0.195h-0.264c0,0-0.611-0.352-1.225-0.787c-0.611-0.438,0,0-0.787-0.877  c-0.789-0.875-0.262-0.438-0.438-0.875s-0.439-0.612-0.439-0.612s0,0-0.875-0.351c-0.35-0.14-0.421-0.168-0.377-0.168  c0.027,0,0.104,0.012,0.182,0.012c0.098,0,0.195-0.019,0.195-0.107c0-0.262,0.264-0.875,0.264-0.875s0,0,0.085-0.524  c0.091-0.525,0.353-0.875,0.353-0.875s-0.176-0.875-0.262-1.312c-0.091-0.439,0.086-0.789,0-1.402  c-0.07-0.473-0.292-0.788-0.671-0.788c-0.112,0-0.239,0.028-0.382,0.088c0,0-0.352,0.175-0.611,0.175  c-0.263,0-1.138-0.263-1.576-0.263s-0.612,0.349-1.052,0.349c-0.436,0-2.273,0.439-2.273,0.439h-2.539c0,0,0,0-0.174-0.349  c-0.177-0.352-0.177-0.877-0.526-0.964c-0.35-0.088-0.613,0-1.051-0.088c-0.146-0.029-0.34-0.039-0.537-0.039  c-0.389,0-0.775,0.039-0.775,0.039l-0.789,0.088c0,0-0.589,0.441-0.754,0.441c-0.016,0-0.027-0.004-0.035-0.013  c-0.086-0.099-0.61-0.517-0.61-0.517l-0.789,0.438c0,0-0.311,0.078-0.726,0.078c-0.209,0-0.441-0.02-0.676-0.078  c-0.697-0.174-1.573-1.051-2.273-1.051c-0.701,0-1.053-0.35-2.363-0.788c-1.314-0.438-0.613-0.524-0.613-0.524  s-1.751-1.225-2.453-1.312c-0.697-0.086-0.436-0.086-1.312-0.528c-0.237-0.118-0.399-0.159-0.518-0.159  c-0.257,0-0.312,0.193-0.531,0.193c-0.049,0-0.105-0.01-0.176-0.034c-0.522-0.174,0,0-0.611-0.174  c-0.614-0.175-0.264-0.524-0.35-1.052c-0.088-0.522-0.963-0.873-0.963-0.873s-0.353-0.525-0.438-0.787  c-0.089-0.263,0.085-0.788,0.085-0.788s0.788-0.437,0.877-0.963s0.089-0.7-0.089-1.05c-0.176-0.351-0.436-0.701-0.436-0.701v-0.963  c0,0,0.613-1.051,0.613-1.434s-0.439-0.755-1.051-0.755s0,0-1.314,0.526c-0.428,0.17-0.577,0.229-0.598,0.229  c-0.049,0,0.455-0.259,0.159-0.319c-0.438-0.087-0.962-0.699-1.224-0.875c-0.265-0.174-0.702-0.7-0.702-0.7s0,0-0.349-0.699  c-0.139-0.28-0.169-0.336-0.18-0.336c-0.008,0-0.008,0.025-0.029,0.025c-0.025,0-0.084-0.04-0.229-0.214  c-0.155-0.188-0.2-0.241-0.223-0.241c-0.027,0-0.011,0.104-0.176,0.104c-0.051,0-0.12-0.011-0.215-0.038  c-0.611-0.176-0.438-0.088-0.876-0.613s0,0,0-0.613c0-0.222,0-0.282-0.003-0.282c-0.006,0-0.018,0.09-0.042,0.09  c-0.011,0-0.026-0.018-0.044-0.069c-0.084-0.263,0.089-0.525-0.084-0.787c-0.176-0.262-0.613-0.525-0.613-0.525s0,0-0.613-0.263  c-0.219-0.094-0.281-0.12-0.295-0.12c-0.02,0,0.052,0.049-0.055,0.049c-0.037,0-0.092-0.005-0.177-0.02  c-0.524-0.092,0-0.696-0.261-0.865c-0.264-0.167,0-0.795,0-0.795s1.049-0.701,1.225-1.139c0.066-0.166,0.082-0.207,0.085-0.207  c0.004,0-0.003,0.034,0.011,0.034c0.01,0,0.031-0.02,0.08-0.09c0.174-0.262,0.875-0.262,1.662-0.613c0,0,0.701-0.087,1.051-0.175  c0.349-0.088,0.523-1.138,0.523-1.138l1.925-0.438c0,0,0.528-0.35,0.528-0.613c0-0.263,0.787-0.438,0.787-0.438l1.226-0.438  l0.77-0.087c0,0,0.63-0.351,0.192-0.614c-0.438-0.262,0-0.7,0-0.7l0.787-0.613l-0.087-0.962l-0.175-0.788l-0.088-0.963l-0.438-0.875  v-0.525l0.7-0.437c0,0,0.526-0.176,0.788-0.351c0.087-0.059,0.195-0.078,0.299-0.078c0.209,0,0.403,0.078,0.403,0.078  s0.606,0.304,1.163,0.304c0.111,0,0.221-0.013,0.323-0.042c0.613-0.175,0-0.701,0-0.701l-0.436-0.875c0,0,0.087-0.613,0.524-0.875  c0.438-0.262,0-0.963,0-0.963l0.611-1.064c0,0,0.74,0.084,1.31,0.084c0.284,0,0.526-0.021,0.614-0.084  c0.039-0.028,0.1-0.04,0.176-0.04c0.443,0,1.401,0.405,1.401,0.405l0.349-0.365l-0.349-1.648l1.053-1.313l0.786-0.087l0.7-0.525  v-0.789L24.586,28l1.05,0.875l1.313,0.612v0.963l2.557,1.051l0.681,1.488v0.7c0,0-0.085,0.438-0.085,0.701  c0,0.262-0.087,0.438-0.439,0.7c-0.352,0.262,0,0.788,0,0.788l0.439,1.051c0,0,1.926,0.437,2.361,0.437  c0.439,0,1.225,0.088,1.225,0.088s1.492,0.962,2.19,1.05c0.7,0.088,0.438,0.35,1.051,0.613c0.612,0.262-0.176,0.438,0,1.051  c0.174,0.612,1.312,2.1,1.312,2.1s0.787,0.113,1.37,0.113c0.144,0,0.278-0.007,0.382-0.025c0.074-0.013,0.16-0.018,0.25-0.018  c0.541,0,1.301,0.193,1.676,0.193c0.438,0,1.486,0,1.838,0c0.35,0,2.015,0.349,2.015,0.349l1.751,0.614c0,0,0.826,0.276,1.257,0.276  c0.054,0,0.103-0.004,0.142-0.014c0.026-0.006,0.057-0.01,0.089-0.01c0.403,0,1.243,0.461,1.486,0.622  c0.131,0.087,0.393,0.11,0.622,0.11c0.232,0,0.43-0.022,0.43-0.022l1.785-0.875l1.016-0.614l1.312-0.174c0,0,1.312,0,1.664,0  c0.35,0,1.488-0.262,1.662-0.526c0.174-0.262,0.963-0.525,1.139-0.788c0.174-0.262,1.312-1.05,1.32-1.487l0.08-0.438  c0,0-0.174-0.35,0-1.051c0.174-0.7,1.486-0.7,1.486-0.7s0.439,0,0.701,0s1.139-0.089,1.139-0.089s0,0,0.264-0.262  c0.262-0.262,0.697-0.963,0.697-0.963l1.928-0.088l0.35-0.35c0,0,0.613-0.437,0.875-0.963l0.699-0.088c0,0,0.439-0.174,0.703-0.612  c0.26-0.438,0.875-0.263,1.312-0.438c0.145-0.058,0.26-0.077,0.352-0.077c0.184,0,0.262,0.077,0.262,0.077h1.662  c0,0-0.09-0.7-0.09-1.226c0-0.181,0-0.237-0.006-0.237c-0.012,0-0.043,0.148-0.123,0.148c-0.012,0-0.027-0.004-0.045-0.013  c-0.174-0.103-0.438-1.211-0.609-1.474c-0.09-0.131-0.352-0.175-0.668-0.175c-0.318,0-0.689,0.044-0.998,0.087l-0.789,0.525  l-0.697,0.263c0,0-1.576-0.088-1.926-0.438c-0.352-0.351-0.613-0.351-0.613-0.351v-1.925l1.049-1.575l1.4-0.876l0.439,0.263h1.049  c0,0,0.525,0,0.877-0.175c0.348-0.175,0.525-0.524,0.525-0.524v-0.789c0,0,0.875-0.963,1.225-1.225c0.35-0.263,0-0.788,0-0.788  l0.613-1.313l0.697-0.876l0.264-1.4l-0.961-0.262V19.16c0,0,0.348-0.438,0.439-0.701c0.084-0.263,2.01-0.788,2.271-1.051  c0.09-0.087,0.352-0.116,0.662-0.116c0.623,0,1.439,0.116,1.439,0.116l1.141,0.788h1.047l0.965,0.788l0.963,0.788l0.699,1.663  c0,0,0.176,1.138,0.176,1.488c0,0.349,0.262,0.613,0.262,0.613l0.875,1.489l0.088,0.962c0,0,0.088,0.875,0.264,1.137  c0.174,0.265,1.312,0.265,1.662,0.439c0.117,0.058,0.254,0.078,0.385,0.078c0.258,0,0.492-0.078,0.492-0.078  s0.172,0.524,0.393,1.137c0.074,0.204,0.219,0.272,0.395,0.272c0.35,0,0.816-0.272,1.049-0.272c0.354,0,0,0.894,0,0.894h0.354  l-0.354,0.769l0.877,1.05c0,0,0.232,0.039,0.492,0.039c0.129,0,0.266-0.01,0.385-0.039c0.35-0.087,1.398,0,1.926-0.087  c0.523-0.088,0,0-0.09-0.263c-0.088-0.262-0.613-0.438-0.613-0.438l1.84-0.087c0,0,0.875-0.438,0.963-0.789  c0.029-0.117,0.105-0.156,0.197-0.156c0.18,0,0.416,0.156,0.416,0.156V30.801z"></path></svg>