<svg fill="#C20114" xmlns="http://www.w3.org/2000/svg" xmlns:xlink="http://www.w3.org/1999/xlink" version="1.2" baseProfile="tiny" x="0px" y="0px" viewBox="0 0 100 100" xml:space="preserve"><path d="M77.966,74.431c0.701-1.047,1.342-2.146,1.916-3.293c4.562-9.124,4.175-19.807-1.035-28.576   c-0.563-0.944-1.675-1.413-2.744-1.15c-1.068,0.262-1.841,1.19-1.901,2.289c-0.261,4.687-2.521,8.903-6.065,11.698   c3.033-17.725-6.318-35.382-23.362-42.65c-0.771-0.329-1.658-0.25-2.358,0.214c-0.7,0.463-1.122,1.246-1.122,2.086   c0,5.701-3,10.749-6.942,15.768L19.268,15.732c-0.977-0.977-2.559-0.977-3.535,0s-0.977,2.559,0,3.535l15.427,15.427   c-0.512,0.602-1.028,1.205-1.548,1.811c-6.077,7.079-12.36,14.4-12.99,23.614c-0.74,10.82,4.489,21.151,13.648,26.961   c0.891,0.563,2.037,0.511,2.869-0.135c0.833-0.645,1.172-1.741,0.849-2.744c-1.495-4.638-1.386-9.495,0.162-13.892   c0.532,3.224,1.821,6.326,3.824,8.998c3.887,5.182,10.082,8.234,16.534,8.234c0.629,0,1.261-0.028,1.894-0.088   c7.154-0.772,13.621-4.044,18.417-9.102l10.914,10.914C86.221,89.756,86.86,90,87.5,90s1.279-0.244,1.768-0.732   c0.977-0.977,0.977-2.559,0-3.535L77.966,74.431z M77.275,51.68c1.458,5.699,0.849,11.792-1.866,17.222   c-0.328,0.656-0.691,1.286-1.07,1.903l-8.445-8.445C71.014,60.344,75.044,56.495,77.275,51.68z M45.95,18.872   c14.101,7.739,20.955,24.165,16.279,39.822l-24.32-24.32C41.689,29.622,44.921,24.603,45.95,18.872z M55.9,82.48   c-5.353,0.493-10.697-1.865-13.927-6.172c-3.229-4.308-4.006-10.093-2.025-15.098c0.436-1.1,0.04-2.354-0.946-3.006   c-0.421-0.278-0.9-0.414-1.377-0.414c-0.642,0-1.278,0.246-1.76,0.724c-5.467,5.413-8.249,12.722-7.916,20.148   c-4.447-4.879-6.804-11.425-6.34-18.201c0.517-7.559,5.995-13.942,11.796-20.7c0.434-0.505,0.868-1.012,1.301-1.52L71.28,74.815   C67.282,79.077,61.872,81.836,55.9,82.48z"></path></svg>