<svg fill="#70798C" xmlns="http://www.w3.org/2000/svg" xmlns:xlink="http://www.w3.org/1999/xlink" version="1.1" x="0px" y="0px" viewBox="0 0 100 100" enable-background="new 0 0 100 100" xml:space="preserve"><path fill="#70798C" d="M47.903,96.591c-0.311,0-0.625-0.062-0.922-0.188L15.837,83.104c-1.13-0.481-1.697-1.754-1.3-2.918  l9.427-27.601l-19.555-27.7c-0.567-0.804-0.573-1.877-0.014-2.688c0.559-0.81,1.567-1.185,2.518-0.94l18.327,4.714l0.805-8.76  c0.074-0.809,0.561-1.521,1.287-1.885c0.725-0.363,1.587-0.327,2.28,0.099l8.614,5.291L54.65,6.158c0.791-0.7,1.953-0.787,2.84-0.21  l37.129,24.186c1.081,0.704,1.393,2.148,0.695,3.234C85.146,49.243,81.221,55.255,79.57,57.62c0.908,2.31,3.106,8.149,8.695,23.366  c0.361,0.988,0.023,2.096-0.828,2.713L76.49,91.623c-0.624,0.45-1.428,0.564-2.154,0.312l-14.824-5.203l-10.016,9.235  C49.053,96.376,48.482,96.591,47.903,96.591z M19.686,79.641l27.742,11.846l9.937-9.161c0.639-0.591,1.553-0.776,2.369-0.49  L74.732,87.1l8.511-6.162c-3.156-8.582-7.692-20.84-8.371-22.455c-0.201-0.354-0.312-0.756-0.312-1.17  c0-0.645,0.262-1.229,0.683-1.654c1.204-1.65,9.205-14.044,14.858-22.859L56.427,10.86L40.038,25.385  c-0.773,0.686-1.905,0.785-2.787,0.244l-6.875-4.224l-0.711,7.741c-0.063,0.685-0.423,1.309-0.986,1.705s-1.273,0.525-1.938,0.354  l-14.81-3.809l16.561,23.459c0.434,0.615,0.547,1.4,0.303,2.112L19.686,79.641z"></path></svg>