<svg fill="#F7D002" xmlns="http://www.w3.org/2000/svg" xmlns:xlink="http://www.w3.org/1999/xlink" version="1.1" x="0px" y="0px" viewBox="0 0 100 100" enable-background="new 0 0 100 100" xml:space="preserve"><g><path fill="none" stroke="#F7D002" stroke-miterlimit="10" d="M76.538,52.34c0.488-0.013,0.831-1.887,0.831-2.405   c-0.004-1.244,0.071-2.462,0.138-3.698c0.891,0.158,1.772,0.506,2.745,0.526c0.31-1.081,0.742-2.321,0.748-3.448   c0.003-0.739-0.242-1.292,0.115-1.97c0.239-0.455,0.746-0.74,0.939-1.239c0.206-0.529-0.063-1.375,0.241-1.812   c0.337-0.486,1.29-0.542,1.729-0.844c1.223-0.84,1.782-2.054,3.489-0.969c0.2-0.399,0.198-0.771,0.267-1.198   c0.068-0.435,0.164-0.834,0.244-1.213c0.301-1.386,0.118-1.285-1.092-2.033c-0.938-0.58-1.002-1.709-1.785-2.204   c-0.559-0.353-2.005-0.047-2.69-0.08c-0.957-0.045-2.067-0.375-2.887,0.226c-0.371,0.271-0.372,0.817-0.74,1.108   c-0.338,0.265-1.059,0.331-1.47,0.552c-1.71,0.922-2.322,3.178-4.577,3.318c-0.048,1.319,2.133,2.096-0.251,2.689   c-1.305,0.324-2.776,0.008-4.121,0c-1.455-0.009-2.369-0.496-2.928-1.779c-0.532-1.218,0.031-2.285-1.896-2.151   c-0.614,2.045,0.68,4.623-2.441,5.289c-2.255,0.482-3.287-0.81-4.653-1.922c-0.64-0.521-0.915-0.562-1.765-0.68   c-0.949-0.131-1.195-0.325-2.055-0.682c-1.093-0.455-2.353-0.063-3.528-0.217c-1.08-0.142-2.404-0.824-3.371-1.351   c-1.002-0.545-1.683-1.402-2.657-1.923c-0.982-0.524-2.059-0.465-2.06-1.801c-0.001-0.815,0.575-2.23,0.932-2.982   c0.324-0.684,1.155-1.269,0.401-2.101c-0.43-0.474-1.339-0.382-1.941-0.665c-2.503-1.174-3.828-3.374-3.828-5.852   c1.033-0.146,2.013,0.565,2.377-0.582c0.376-1.184-0.903-1.238-1.217-2.136c-0.703-2.014,1.994-3.015,2.763-4.605   c0.284-0.586,0.947-1.962,0.756-2.619c-0.205-0.706-2.116-1.527-2.855-1.719c-2.398-0.621-4.258,2.025-6.445,0.341   c-0.856-0.659-1.662-1.451-2.678-1.899c-0.907-0.399-1.93-0.778-2.815-1.2c-0.756-0.36-1.52-0.361-2.426-0.373   c-1.088-0.014-1.07,0.013-1.688,0.586c-0.512,0.475-0.423,0.624-1.066,0.995c-0.501,0.289-1.178,0.097-1.34,0.87   c-0.272,1.296,2.01,1.539,2.771,2.429c0.727,0.851,0.703,1.909,0.505,2.902c-0.194,0.977-0.418,1.782-0.363,2.82   c0.086,1.623,1.001,1.779,2.18,2.739c0.72,0.586,1.76,1.384,2.294,2.133c0.837,1.171-0.398,1.307-0.99,2.12   c-0.533,0.732-0.725,1.773-1.067,2.589c-0.247,0.587-0.541,0.869-0.959,1.365c-0.273,0.323-0.416,0.05-0.613,0.468   c-0.156,0.332,0.161,0.838-0.022,1.173c-0.208,0.382-1.091,0.659-1.461,0.917c-0.782,0.544-0.664,0.549-0.935,1.272   c-0.296,0.787-0.144,0.81-0.732,1.459c-0.379,0.417-0.76,0.745-1.174,1.162c-0.664,0.668-1.288,1.964-2.183,2.317   c-0.839,0.332-2.509-1.706-3.68-1.179c-0.541,0.708-0.245,2.633-0.819,3.345c-0.44,0.544-0.958,0.373-0.708,1.133   c0.062,0.189,0.885,0.635,1.064,0.814c0.761,0.766,0.431,1.347,0.753,2.344c0.316,0.976,1.251,1.385,1.547,2.363   c0.158,0.521,0.589,1.76,0.038,2.283c-0.306,0.291-2.277,0.414-2.702,0.432c-1.574,0.068-4.816-0.268-4.339,2.092   c0.301,0.468,3.409,2.381,4.46,2.185c0.59-0.111,1.064-0.472,1.682-0.433c-0.892,1.547-2.306,1.645-4.087,1.691   c-0.26,1.175,1.494,2.569,2.258,3.363c0.98,1.018,2.081,2.02,3.663,1.807c1.606-0.216,2.582-1.116,2.536-2.596   c-0.033-1.094-0.406-2.723,1.408-2.574c0.148,0.837-0.29,1.787-0.079,2.688c0.258,1.104,1.313,1.976,1.334,3.161   c0.02,1.076-0.591,2.06-0.605,3.182c-0.016,1.252,0.735,2.131,0.975,3.24c0.497,2.308,0.447,4.708,1.056,6.971   c0.661,2.454,1.782,4.542,2.963,6.795c1.031,1.967,1.042,3.903,2.147,5.748c1.179,1.969,2.279,3.797,3.297,5.946   c0.646,1.366,0.86,2.877,1.689,4.077c1.289,0.061,2.103-0.173,2.969-1.134c0.318-0.353,0.44-1.187,0.724-1.421   c0.429-0.354,0.97-0.229,1.59-0.266c0.113-0.598-0.45-0.631-0.468-1.104c-0.033-0.846,0.372-0.973,0.977-1.328   c0.999-0.585,1.444-0.503,1.567-1.723c0.174-1.723-0.678-3.715,0.391-5.163c0.639-0.865,1.162-1.135,0.951-2.384   c-0.148-0.873-0.68-1.735-0.863-2.604c-0.323-1.526-0.223-4.479,1.674-5.061c0.362,2.054,1.63-0.988,1.867-1.151   c0.473-0.321,1.229,0.096,1.737-0.205c0.419-0.249,0.793-1.278,1.025-1.704c0.459-0.844,0.058-0.575,0.969-1.014   c0.522-0.252,1.083-0.313,1.625-0.678c1.096-0.736,2.17-1.065,2.366-2.367c0.189-1.259-0.008-1.754,1.086-2.614   c0.967-0.76,1.783-1.145,2.879-1.531c0.896-0.316,2.288-0.836,2.842-1.613c0.579-0.81,0.107-1.75,0.334-2.699   c0.394-1.651,1.703-1.558,2.995-2.291c0.992-0.563,2.489,0.801,3.299,0.657c0.387-0.988-0.491-1.562-0.732-2.539   c-0.239-0.974,0.129-2.01-0.206-2.961c-0.28-0.797-0.413-1.623-0.723-2.371c-0.386-0.931-1.307-1.556-1.199-2.634   c0.865-0.152,2.771-0.206,2.142-1.504c-0.299-0.618-1.065-0.645-1.339-1.332c-0.166-0.416-0.129-0.974-0.104-1.474   c1.532,0.163,2.626,1.141,4.318,1.243c1.118,1.521,0.02,2.571,2.777,2.802c0.546,0.045,3.492-0.404,4.009,0.44   c0.62,1.017-0.88,1.288-1.442,1.697c-0.82,0.599-1.852,1.898-1.691,2.935c0.229,1.484,1.847,1.468,1.955-0.096   c2.967-0.794,1.17,4.745,3.275,4.279"></path><path fill="none" stroke="#F7D002" stroke-miterlimit="10" d="M76.618,78.62c-0.084,0.658,0.225,1.249,0.103,1.899   c-0.37-0.15-0.393,0.064-0.683-0.314c-0.068,0.975,0.521,1.467,0.308,2.476c-0.146,0.684-0.482,1.235-0.436,2.015   c0.727-0.253,0.285-1.023,0.458-1.654c0.182-0.665,0.572-0.75,0.613-1.603c0.034-0.692,0.469-2.453,0-2.818"></path><path fill="none" stroke="#F7D002" stroke-miterlimit="10" d="M76.497,90.913c-0.108,0.227-0.229,0.416-0.22,0.665   c0.176-0.065,0.225-0.204,0.341-0.326"></path><path fill="none" stroke="#F7D002" stroke-miterlimit="10" d="M75.65,86.402c-0.242,0.175-0.353,0.374-0.225,0.771   c0.513-0.126,0.6-0.375,0.225-0.659"></path><path fill="none" stroke="#F7D002" stroke-miterlimit="10" d="M78.434,94.07c0.141,0.281,0.341,0.421,0.222,0.783   c-0.247-0.266-0.285-0.679-0.222-1.12"></path></g></svg>