<svg fill="#252323" xmlns="http://www.w3.org/2000/svg" xmlns:xlink="http://www.w3.org/1999/xlink" version="1.1" x="0px" y="0px" viewBox="0 0 100 100" style="enable-background:new 0 0 100 100;" xml:space="preserve"><g><path d="M50,95C25.18662,95,5,74.81339,5,50S25.18662,5,50,5s45,20.18662,45,45S74.81339,95,50,95z M50,7.32626   C26.46939,7.32626,7.32626,26.4694,7.32626,50S26.46939,92.67375,50,92.67375s42.67374-19.14314,42.67374-42.67374   S73.53061,7.32626,50,7.32626z"></path></g><g><path d="M69.16661,29.18819H59.09072H40.90777H30.87125c-2.19525,0.01212-3.98083,1.74242-3.98008,3.85665v17.20762   c0.00076,1.57507,1.28277,3.1986,2.86011,3.61963c3.67074,0.96501,7.40187,1.63517,11.15648,2.06576v3.6272   c0,2.13846,1.73939,3.87709,3.87709,3.87709h10.42877c2.13846,0,3.87709-1.73863,3.87709-3.87709v-3.62304   c3.76909-0.43011,7.5148-1.10113,11.19964-2.06993h0.00303c1.57507-0.42103,2.85633-2.04456,2.85633-3.62038V33.04559   C73.15123,30.93061,71.36717,29.2003,69.16661,29.18819z M57.53988,30.73902v23.79489   c-5.01599,0.48312-10.06529,0.4817-15.08128-0.00417V30.73902H57.53988z M30.14808,52.37274   c-0.90794-0.24232-1.70531-1.23431-1.70607-2.12104V33.04483c-0.00076-1.26384,1.09346-2.29824,2.43378-2.30581h10.03197v23.64146   C37.28672,53.9568,33.68868,53.30329,30.14808,52.37274z M57.53988,59.56504c0,1.28277-1.04348,2.32626-2.32626,2.32626H44.78486   c-1.28277,0-2.32626-1.04348-2.32626-2.32626v-3.47802c2.51557,0.23882,5.03748,0.39907,7.5626,0.39907   c2.51036,0,5.0176-0.15874,7.51868-0.3949V59.56504z M71.59888,50.25169c0,0.88673-0.79662,1.87872-1.70531,2.12104   c-3.5545,0.93425-7.16713,1.5886-10.80285,2.012V30.73902h10.07135c1.34487,0.00757,2.43833,1.04121,2.43681,2.30581   C71.59888,33.04483,71.59888,50.25169,71.59888,50.25169z"></path><path d="M35.88951,58.07327l-7.0189-1.20099c-0.48161-0.07875-0.96852,0.04998-1.34184,0.36045   c-0.37408,0.31047-0.59292,0.76633-0.60201,1.25248l-0.05679,3.26372c-0.00757,0.45284,0.16356,0.87841,0.48161,1.19948   c0.31501,0.31804,0.73453,0.49372,1.18054,0.49372c0.00379,0,0.00757,0,0.0106,0l7.17262-0.03635   c0.45208-0.00151,0.88976-0.19083,1.20175-0.51796c0.31123-0.32864,0.47706-0.77693,0.4551-1.22825l-0.10071-2.0279   C37.23286,58.85777,36.6513,58.20352,35.88951,58.07327z M35.70929,61.85495l-7.17413,0.03635l-0.11434-0.1151l0.05679-3.26373   l0.13252-0.11056l7.11204,1.30549l0.10071,2.0279L35.70929,61.85495z"></path><path d="M72.46971,57.23273c-0.37408-0.31047-0.87234-0.43769-1.34335-0.36045l-7.01662,1.20099   c-0.7633,0.13025-1.34487,0.78602-1.38121,1.5569l-0.10147,2.0279v0.00303c-0.02272,0.45132,0.14388,0.8996,0.45586,1.22673   c0.31653,0.33319,0.7421,0.51644,1.19796,0.51796l7.17413,0.03635c0.00303,0,0.00606,0,0.0106,0   c0.44677,0,0.8678-0.17568,1.18282-0.49524c0.31804-0.32107,0.48766-0.74664,0.48009-1.19796l-0.05603-3.26524   C73.06339,57.99754,72.84379,57.54168,72.46971,57.23273z M71.46409,61.8913l-7.25743-0.07118   c-0.01514-0.01666-0.03332-0.04392-0.0318-0.08481l0.19537-2.1324l7.01662-1.20099l0.13479,0.11056l0.05604,3.26373   L71.46409,61.8913z"></path><path d="M43.85496,28.58618h12.28856c1.51752,0,2.75334-1.23582,2.75334-2.7541s-1.23582-2.75334-2.75334-2.75334H43.85496   c-1.51827,0-2.75334,1.23507-2.75334,2.75334S42.33669,28.58618,43.85496,28.58618z M43.85496,24.24187h12.28856   c0.87689,0,1.59021,0.71332,1.59021,1.59021s-0.71333,1.59097-1.59021,1.59097H43.85496   c-0.87689,0-1.59021-0.71408-1.59021-1.59097C42.26475,24.95519,42.97807,24.24187,43.85496,24.24187z"></path><path d="M68.41239,20.92589H31.63001c-4.02778,0-7.30438,3.397-7.30438,7.57244l-0.04316,41.01993   c0,2.20812,1.73939,4.00582,3.87709,4.00582h8.44309l-2.37756,8.45236c-0.17341,0.61791,0.18628,1.26006,0.80495,1.43422   c0.10526,0.03029,0.21127,0.04392,0.31577,0.04392c0.50811,0,0.97457-0.3347,1.11921-0.84811l0.99899-3.55148h25.11458   l0.99956,3.55148c0.14388,0.51341,0.61034,0.84811,1.11921,0.84811c0.10298,0,0.21051-0.01363,0.31501-0.04392   c0.61791-0.17416,0.97836-0.81631,0.80419-1.43422l-1.14779-4.07805c0-0.00237,0.00196-0.00425,0.00133-0.00653   c-0.06321-0.22739-0.03461-0.14122-0.15865-0.55222l-1.07387-3.81557h8.35818c2.13846,0,3.87709-1.7977,3.87709-4.00431   l0.04392-41.02068C75.71678,24.32289,72.43941,20.92589,68.41239,20.92589z M61.10196,73.8088l0.8218,2.91994h-23.8054   l0.82133-2.91994c0.02679-0.0955,0.05885-0.2366,0.06262-0.28472h1.08082c0.92686,0,1.76362-0.54825,2.13164-1.39636   l1.32063-3.02746c0.24762-0.56642,0.80571-0.93141,1.42211-0.93141h10.08346c0.61791,0,1.17524,0.36499,1.42211,0.93141   l1.32063,3.02746c0.37105,0.84811,1.20553,1.39636,2.12634,1.39636h1.12302C61.04624,73.61964,61.07498,73.7133,61.10196,73.8088z    M74.12202,69.51826c0,1.35395-1.04348,2.45499-2.32626,2.45499h-11.8857c-0.30441,0-0.58157-0.18326-0.70575-0.46646   l-1.32063-3.02747c-0.49221-1.12981-1.60839-1.86131-2.8427-1.86131H44.95751c-1.23355,0-2.34897,0.72998-2.84345,1.86131   l-1.32064,3.02898c-0.12267,0.28169-0.40134,0.46495-0.71029,0.46495H28.15956c-1.28277,0-2.32625-1.10104-2.32625-2.45348   l0.04316-41.02068c0-3.32051,2.58069-6.02236,5.75354-6.02236h36.78238c3.17286,0,5.75355,2.70185,5.75355,6.02161   L74.12202,69.51826z"></path><path d="M53.65281,68.89515h-7.30637c-1.13255,0-2.05914,0.92658-2.05914,2.05914c0,1.13245,0.92659,2.05914,2.05914,2.05914   h7.30637c1.13255,0,2.05914-0.92668,2.05914-2.05914C55.71194,69.82173,54.78536,68.89515,53.65281,68.89515z"></path></g></svg>