<svg fill="#454E9E" xmlns="http://www.w3.org/2000/svg" xmlns:xlink="http://www.w3.org/1999/xlink" version="1.1" x="0px" y="0px" viewBox="0 0 100 100" style="enable-background:new 0 0 100 100;" xml:space="preserve"><g><path d="M20,95h60c2.2,0,4-1.8,4-4V9c0-2.2-1.8-4-4-4H20c-2.2,0-4,1.8-4,4v82C16,93.2,17.8,95,20,95z M80,93H20c-1.1,0-2-0.9-2-2   V32.2h64V91C82,92.1,81.1,93,80,93z M20,7h60c1.1,0,2,0.9,2,2v21.2H18V9C18,7.9,18.9,7,20,7z"></path><path d="M50,41c-11.6,0-21,9.4-21,21s9.4,21,21,21s21-9.4,21-21S61.6,41,50,41z M50,81c-10.5,0-19-8.5-19-19s8.5-19,19-19   s19,8.5,19,19S60.5,81,50,81z"></path><path d="M56.1,54.9c3.9,3.9,3.9,10.2,0,14.1l1.4,1.4c4.7-4.7,4.7-12.3,0-17L56.1,54.9z"></path><path d="M55,21.5c1.4,0,2.5-1.1,2.5-2.5s-1.1-2.5-2.5-2.5s-2.5,1.1-2.5,2.5S53.6,21.5,55,21.5z M55,18.5c0.3,0,0.5,0.2,0.5,0.5   s-0.2,0.5-0.5,0.5s-0.5-0.2-0.5-0.5S54.7,18.5,55,18.5z"></path><path d="M68,21.5c1.4,0,2.5-1.1,2.5-2.5s-1.1-2.5-2.5-2.5s-2.5,1.1-2.5,2.5S66.6,21.5,68,21.5z M68,18.5c0.3,0,0.5,0.2,0.5,0.5   s-0.2,0.5-0.5,0.5s-0.5-0.2-0.5-0.5S67.7,18.5,68,18.5z"></path></g></svg>